/* XPM */
static char *_3435_1b3aedfcf0bd28ec583f04d0dfda4e446f3c3fb35d3418d65287ab09a7765fe1[] = {
/* columns rows colors chars-per-pixel */
"40 49 88 1 ",
"  c #040303",
". c #090604",
"X c #0E0806",
"o c #0D0C0C",
"O c #120A06",
"+ c #120E0C",
"@ c #1A0E0A",
"# c #14110E",
"$ c #1C120C",
"% c #0F0D10",
"& c #110F10",
"* c #151212",
"= c #1B1514",
"- c #1E1915",
"; c #1E1C1A",
": c #21130E",
"> c #231614",
", c #2A1714",
"< c #231B15",
"1 c #2C1B16",
"2 c #241D1A",
"3 c #2C1D1B",
"4 c #331B16",
"5 c #331E1A",
"6 c #391E1A",
"7 c #2D2117",
"8 c #26211D",
"9 c #2C221B",
"0 c #34231C",
"q c #3A221E",
"w c #34281E",
"e c #3A2A1E",
"r c #2A1F20",
"t c #262321",
"y c #2D2422",
"u c #2E2923",
"i c #332524",
"p c #3C2522",
"a c #342A23",
"s c #3B2C23",
"d c #392728",
"f c #362A2A",
"g c #3B2B2B",
"h c #3D3126",
"j c #36312B",
"k c #3C322A",
"l c #3F2F31",
"z c #3E3631",
"x c #41251E",
"c c #412D1F",
"v c #422623",
"b c #442924",
"n c #4B2C26",
"m c #452B29",
"M c #4C2D29",
"N c #512F29",
"B c #433225",
"V c #493425",
"C c #43352B",
"Z c #4D332B",
"A c #44382E",
"S c #4B3A2C",
"D c #543227",
"F c #53322B",
"G c #59352D",
"H c #533D2D",
"J c #5B382E",
"K c #402F30",
"L c #423431",
"P c #453A32",
"I c #4B3C32",
"U c #573430",
"Y c #5A3730",
"T c #5C3931",
"R c #633C34",
"E c #56402D",
"W c #59412F",
"Q c #4E4136",
"! c #4B413A",
"~ c #544234",
"^ c #5A4333",
"/ c #52453B",
"( c #594639",
") c #5A4A3C",
"_ c #604C3C",
"` c #5E5146",
"' c #624F40",
"] c None",
/* pixels */
"]]]]]]]]]]]]]]]]]]]ajj]]]]]]]]]]]]]]]]]]",
"]]]]]]]]]]]]]]]PjfaahjhaPQ]]]]]]]]]]]]]]",
"]]]]]]]]]]]]kzjPAuAkahQa!QA!]]]]]]]]]]]]",
"]]]]]]]]]]]jjPuP/ukhhahu!QA)~k!]]]]]]]]]",
"]]]]]]]]]ujtkQaa~waawwauIAA~SaQ~]]]]]]]]",
"]]]]]]]]*;zjuA/<Cw8www98BaASaI^Wh]]]]]]]",
"]]]]]]2u;*9A89H777@$$$$-79Vwa(^ez)]]]]]]",
"]]]]];;8j8-wh<7<O+OOOOO..#<8kSwa`)~]]]]]",
"]]]]]=*8uP9-0<O:::@@@@@OX  =f79!)WA]]]]]",
"]]]]]u8*-aA8@$:::,6q4x6>#X  +-zAAA)^]]]]",
"]]]]*8fA8-97>,,,vFYUbTYZb$.  #wwk))^W]]]",
"]]]t==8CVw@144ppMGNNbGUUTv5X  #uCHHS~]]]",
"]]]tuj9877$:qnMpMUMmpMZMRbU5ooX80aI(^^]]",
"]]]*2jCgw:14ZGm0dglflildUbZM1*ooaAQESH]]",
"]]==-89we<evGFbqdlffgfggYmFUM=*o8saBBC]]",
"]];ufaaa77xFFZp0ififgfggTnFZU2*o=asCII]]",
"]]*-9jAQqvmUNndidlffgfdlUmNMUd&&;zhhBBe]",
"]]#=<70ervmNNmv5pdfffdifTbmmUb=&o87709w]",
"]]8ujAACiqmNNmp5iflflfggGvbbNd=*-aSAAAA]",
"]]-9aBheppvNNmr3iifiiigdNpbvmi**=whhBVV]",
"]]#--7790bibMm53ipir36dpv6idv3%&+=;<770]",
"]]88jzPS0pidgfriiddiidmdirrdgd>&*ujhsse]",
"]];9kQ~~bgiffggllKgggKlgflflllr=*9wesBe]",
"]]*89hbVa3riirfffddfKKlffffglKi=+-870ee]",
"]];uzQ~Qp5-232r>>>riidi5iriiidr%=jjkhhB]",
"]]-9zQ~Edv>,4>>:r65,:,665,5p64***uahhes]",
"]]#=8hhhqp6vnx65MMd65vnMMxMMmM>*%;790w9]",
"]u8uhCkeipvMMv65vvpp6nMFNvNMvm>%=ukkhhS]",
"]-8wkEheqvvMNmp,vvpppnMFNvmMvv=%*9AkVSHS",
"]o#-8we95pvMNM6rpvvv6MNUN6pddq=%o-79weee",
"];;88w9w,pvMNM65vvvm6MUTUxpddi*%o8aweeh]",
"];9hzhwhpvvMNm56vvvv6nFTN6rrdd>*#aCAEWE]",
"]*-8w997wcvbFM05pbbb6vFGN633ii>&&7apVVV]",
"]##-8-77,ebnnnq56vnb6vNGGx6>>,=&&29aeee]",
"]*88whzeqvbMDmp36pnb5nNFNxbv6x>**aCSWHHE",
"]o#=8w77qvpMGnp5pnnn5vNNNxpnnn2&o8asVVcc",
"]###-79730pnDnv6bnMMqnMFNvvMnF3*o=877wwe",
"]*-8wjke0qvnFNv0vnDMqMNGDxbnbF2&*azQ)_)~",
"]##;8eaeqqvnGFv6enFnqnNJDvvvnZ>&*8azQEQV",
"]o#*-8990qbnGnq3qbFn6nDGDvqbZb>*X*=<9w7w",
"]u8fahSSq5ivnp435pbi5qmbp63dmp=&o-ahkSVB",
"]=8aCHSV0iyiyyyiiiiryryifdiiiir=o2ahS^EB",
"]o$=<7701iififfiidirrrifidiiiir*o=80aBVc",
"]o##<<81<223ryrr3rrriiiiidfiiyy*%2wessBS",
"]=-ushse6>=>>>->>>33233333r5332&+thCH^^^",
"]#*2870164366,>=>3,3>46xq12,36>oo=89eVVb",
"]##=<<2100bnnv,,366q6xnDDx55qv,&o#<<<889",
";89aghSVppnnnp5,3qqq6vnDDv35im,&*uCACIHE",
"+*<8weheeqxvnq1>>4455vnnnx,,5p=+%=9wwese"
};
