/* XPM */
static char *_d0b0f9e1e344e95afbff0f6b5a3681a47C8DcKw8LowoiMV[] = {
/* columns rows colors chars-per-pixel */
"60 60 161 2 ",
"   c None",
".  c #030304",
"X  c #080707",
"o  c #0C0A07",
"O  c #03040A",
"+  c #080708",
"@  c #0A090A",
"#  c #140D04",
"$  c #151106",
"%  c #1A1405",
"&  c #1F1806",
"*  c #15120B",
"=  c #1B160A",
"-  c #1D1809",
";  c #0C0D10",
":  c #1B1710",
">  c #1C1813",
",  c #211B07",
"<  c #241D0B",
"1  c #2B220C",
"2  c #31220A",
"3  c #342A0A",
"4  c #3E2B0C",
"5  c #3E330C",
"6  c #272111",
"7  c #292210",
"8  c #342B12",
"9  c #422D0E",
"0  c #44340D",
"q  c #4F360E",
"w  c #473B0E",
"e  c #4C3E0D",
"r  c #403514",
"t  c #4C3512",
"y  c #463B13",
"u  c #493E15",
"i  c #563C12",
"p  c #5C3F10",
"a  c #53430E",
"s  c #59470C",
"d  c #5B4A0D",
"f  c #514210",
"g  c #5B4411",
"h  c #5E4C11",
"j  c #765F0E",
"k  c #604711",
"l  c #634B13",
"z  c #6E4D14",
"x  c #714E15",
"c  c #635011",
"v  c #6A5710",
"b  c #6C5811",
"n  c #735515",
"m  c #7E5612",
"M  c #745019",
"N  c #7B5418",
"B  c #7B6413",
"V  c #865B17",
"C  c #8F730F",
"Z  c #846C12",
"A  c #916316",
"S  c #9B6A17",
"D  c #9C6B1A",
"F  c #8B7113",
"G  c #927613",
"H  c #947913",
"J  c #997D13",
"K  c #A16E15",
"L  c #AB7316",
"P  c #AB741A",
"I  c #B87D16",
"U  c #B37918",
"Y  c #BA7E18",
"T  c #9E7323",
"R  c #A47422",
"E  c #9C8014",
"W  c #9F8218",
"Q  c #A38512",
"!  c #A78912",
"~  c #AC8C14",
"^  c #B08F16",
"/  c #BF8118",
"(  c #B49215",
")  c #B89613",
"_  c #BD9914",
"`  c #B79519",
"'  c #BA9718",
"]  c #C68617",
"[  c #CF8C17",
"{  c #C18318",
"}  c #CB8A1A",
"|  c #D38F19",
" . c #C19D11",
".. c #C09D18",
"X. c #D89217",
"o. c #D49019",
"O. c #D8921B",
"+. c #E09719",
"@. c #E2991B",
"#. c #E89D1B",
"$. c #C6A112",
"%. c #CAA416",
"&. c #CFA917",
"*. c #C4A018",
"=. c #D3AC15",
"-. c #D2AD1A",
";. c #DBB216",
":. c #EFA21D",
">. c #F5A417",
",. c #F4A419",
"<. c #FBA91A",
"1. c #E4BA16",
"2. c #EBBF14",
"3. c #C58922",
"4. c #D4B022",
"5. c #EFA525",
"6. c #E8A42A",
"7. c #F1A724",
"8. c #EEC114",
"9. c #EDC318",
"0. c #F3C514",
"q. c #F7C914",
"w. c #FCCC12",
"e. c #FDCC12",
"r. c #FCCD12",
"t. c #FDCD12",
"y. c #FCCC13",
"u. c #FCCD13",
"i. c #FDCD13",
"p. c #FECD12",
"a. c #FECE12",
"s. c #FFCE12",
"d. c #FFCF12",
"f. c #FFCE13",
"g. c #FECF13",
"h. c #FFCF13",
"j. c #FCCD11",
"k. c #F9C914",
"l. c #F9CB14",
"z. c #F9CA15",
"x. c #FACA14",
"c. c #FACB14",
"v. c #FCCC14",
"b. c #FCCD14",
"n. c #FDCE14",
"m. c #FECE14",
"M. c #FFCF14",
"N. c #FECE15",
"B. c #FCCD17",
"V. c #FCCC13",
"C. c #F7C918",
"Z. c #F6CB1F",
"A. c #FBCD18",
"S. c #FCCD18",
"D. c #F9CD1B",
"F. c #FFD012",
"G. c #FFD013",
"H. c #FFD014",
"J. c #F4CA21",
"K. c #FBCF20",
"L. c #F8CC21",
/* pixels */
"                                                                                                                        ",
"                                                                                                                        ",
"                                                                                                                        ",
"                                                                                                                        ",
"                                                                                                                        ",
"                                                                                                                        ",
"                                                                                                                        ",
"                                                                                                                        ",
"                                                                                                                        ",
"                                                                                                                        ",
"                                                                                                                        ",
"                                                  - % % % % % % % $ . . # %                                             ",
"                                              * - ~ =.=.=.=.=.=.=.( & $ S ] g o                                         ",
"                                            8 ~  .8.a.a.a.a.a.a.a.q.$.) k / [ I x                                       ",
"                                          8 ~ q.a.a.a.a.a.a.a.a.a.a.a.k.` l I <.[ x @ @                                 ",
"                                        r ! q.a.a.a.a.a.a.a.a.a.a.a.a.a.y.( n U <.[ A N >                               ",
"                                      r Q k.a.a.k.J j j j j j j j F 0.a.a.N.~ n D                                       ",
"                                    r E a.a.a.q.J - w b v v v b a $ F 0.a.a.a.~ u       T o                             ",
"                                  O c N.a.a.0.~ d a %.H.N.N.N.N.;.s g W 8.a.a.N.~ w   ,.o.p                             ",
"                                  8 F a.a.0.^ h =.k.k.a.a.a.a.a.k.l.1.l Q 8.a.y.k.-.R ,.7.3.=                           ",
"                                . B l.a.0.! 3 =.a.a.a.a.a.a.a.a.a.a.k.1.c Q 8.a.F.H t 6.    X                           ",
"                                % F a.a._ % 4 1.a.a.a.a.a.a.a.a.a.a.y.k.1.e Q F.a.Q 1       ,                           ",
"                                -.2.a.l.~ 3 &.k.a.a.k.a.k.a.a.a.a.a.a.a.q.0 G l.a.8.4.  5.:.] 2                         ",
"                              ; Q F.a.) < 3 8.a.a.a.k.k.k.k.k.k.a.a.a.a.q.e , Q a.a.` t #.>.+.2                         ",
"                              O C a.F.Q .   C.a.a.a.a.a.a.a.a.a.a.a.a.a.k.%.5 F F.a.! 4 #.>.+.2                         ",
"                              O C a.a.Q X   S.a.k.a.a.a.a.a.k.a.a.a.a.a.a.N.d F F.a.! 4 #.>.+.2                         ",
"                              O C a.a.Q +   A.a.k.k.a.a.k.k.k.k.a.a.k.k.a.k.s F F.a.! 4 #.>.+.2                         ",
"                              O C a.a.Q +   S.a.k.k.a.a.a.k.k.k.y.k.k.k.k.k.s F F.a.! 4 #.>.+.2                         ",
"                              O C a.a.Q O   A.a.a.a.a.a.a.a.a.a.a.a.a.k.a.k.s F F.a.! 4 #.>.+.2                         ",
"                              O C a.a.Q O   N.a.a.a.a.k.a.a.a.a.a.a.k.k.a.a.d F F.a.! 4 #.>.+.2                         ",
"                              O C F.a.Q O   J.N.a.a.k.k.a.a.a.a.a.a.a.a.k.-.0 F F.a.! 4 #.>.+.2                         ",
"                              O J F.a.) , +   N.a.a.k.k.k.a.a.a.a.a.a.a.q.e % Q a.a.! 4 #.>.+.2                         ",
"                                -.0.a.k.Q o   Z.a.a.a.a.a.a.k.a.y.y.y.k.1.5 F q.a.F.! 4 #.,.[ 2                         ",
"                                < G a.a._ $ @   K.a.a.a.a.a.a.a.y.y.y.9.f $ ! F.a.l.Q 0 #.X.9                           ",
"                                . B v.a.8.Q =     A.v.y.a.a.y.a.a.v.D.  = F 2.a.a.~ l ] ,.[ ,                           ",
"                                  r G y.a.0.! 6       K.v.v.v.v.A.    < J 2.a.a.N.G q ,.| i                             ",
"                                    c N.a.a.0.Q 8 O               ; : H 2.a.a.a.( 3 q ,.] $                             ",
"                                    y Q N.a.a.q.G % O O O O O O O $ Z 8.a.y.a.~ n m L | z                               ",
"                                      y ~ y.a.a.q.F v v v v v v v Z 0.a.a.a.) n L <.| M                                 ",
"                                        1 ~ k.a.y.y.N.N.N.N.N.N.N.a.a.a.a.) 3 V [ { K .                                 ",
"                                        X 8 ` q.a.a.a.a.a.a.a.a.a.a.a.k...l 9 P m t R o                                 ",
"                                            8 ' &.0.a.a.a.a.a.a.a.q.=.*.g Y :.O.x X                                     ",
"                                              = < ( ;.;.;.;.;.;.;.' < % S [ @.M                                         ",
"                                                  7 < < < < < < < < X X = ,                                             ",
"                                                                                                                        ",
"                                                                                                                        ",
"                                                                                                                        ",
"                                                                                                                        ",
"                                                                                                                        ",
"                                                                                                                        ",
"                                                                                                                        ",
"                                                                                                                        ",
"                                                                                                                        ",
"                                                                                                                        ",
"                                                                                                                        ",
"                                                                                                                        ",
"                                                                                                                        ",
"                                                                                                                        ",
"                                                                                                                        ",
"                                                                                                                        "
};
