/* XPM */
static char *result[] = {
/* columns rows colors chars-per-pixel */
"60 60 210 2 ",
"   c #6D1B00",
".  c #7A1D00",
"X  c #751F00",
"o  c #4D2700",
"O  c #5B2C00",
"+  c #592700",
"@  c #553700",
"#  c #5C3200",
"$  c #573B00",
"%  c #5A3509",
"&  c #642600",
"*  c #6C2400",
"=  c #642B00",
"-  c #6B2C00",
";  c #732400",
":  c #7A2500",
">  c #752900",
",  c #792A00",
"<  c #653400",
"1  c #623900",
"2  c #683400",
"3  c #713000",
"4  c #801B01",
"5  c #842A00",
"6  c #BA7E2B",
"7  c #BE7B34",
"8  c #DC6F03",
"9  c #C97B09",
"0  c #DD7B06",
"q  c #D97407",
"w  c #DA6E1D",
"e  c #D66B15",
"r  c #C77E13",
"t  c #DC7415",
"y  c #DD7C15",
"u  c #D3741D",
"i  c #DA751D",
"p  c #DF781B",
"a  c #D37918",
"s  c #EF6A01",
"d  c #F56F04",
"f  c #FB6A00",
"g  c #EC7503",
"h  c #E57708",
"j  c #F07400",
"k  c #E36F1A",
"l  c #E2751B",
"z  c #E37A19",
"x  c #E67617",
"c  c #F07313",
"v  c #D66E25",
"b  c #C57124",
"n  c #CD7425",
"m  c #C37B2F",
"M  c #CA752D",
"N  c #DE7322",
"B  c #D47B24",
"V  c #D2732C",
"C  c #D47A2D",
"Z  c #DA772A",
"A  c #CD7533",
"S  c #C37B36",
"D  c #C5773C",
"F  c #CE753D",
"G  c #C6793C",
"H  c #CD7A3B",
"J  c #C37535",
"K  c #D97632",
"L  c #D4773B",
"P  c #D47C3C",
"I  c #D47633",
"U  c #E57A25",
"Y  c #E67525",
"T  c #BA794B",
"R  c #BC7854",
"E  c #BB7164",
"W  c #C37C43",
"Q  c #CA7C44",
"!  c #C47C48",
"~  c #C67643",
"^  c #D0786A",
"/  c #BA8C00",
"(  c #CA8405",
")  c #C38801",
"_  c #C78719",
"`  c #ED9F1C",
"'  c #ED9F17",
"]  c #FC9E14",
"[  c #FF961D",
"{  c #F39C1B",
"}  c #FD9A1B",
"|  c #F99B12",
" . c #EEAB16",
".. c #EDA91D",
"X. c #EAA314",
"o. c #F3A31B",
"O. c #FCA21D",
"+. c #F2A81C",
"@. c #FAA91E",
"#. c #F3A212",
"$. c #EDB11F",
"%. c #CC8722",
"&. c #DB822E",
"*. c #CB813B",
"=. c #D0803B",
"-. c #F19D24",
";. c #FD9B22",
":. c #FE9C2B",
">. c #FA9829",
",. c #FD9C33",
"<. c #FD9B3B",
"1. c #F89837",
"2. c #EBA723",
"3. c #EBA824",
"4. c #F4A324",
"5. c #FDA324",
"6. c #FDA32B",
"7. c #F5A827",
"8. c #EDA735",
"9. c #FDA43C",
"0. c #F8A237",
"q. c #E7CF2F",
"w. c #FCCC34",
"e. c #FFCC3D",
"r. c #FFC43B",
"t. c #FDD434",
"y. c #FDDA34",
"u. c #FFD33C",
"i. c #F8DB3D",
"p. c #FBF82F",
"a. c #FFE63A",
"s. c #FCFD36",
"d. c #FBF43D",
"f. c #FCFD3D",
"g. c #F6F838",
"h. c #B88045",
"j. c #B38265",
"k. c #B3846A",
"l. c #C98443",
"z. c #C58246",
"x. c #ED9D40",
"c. c #EE934D",
"v. c #F69C43",
"b. c #F59C4B",
"n. c #EE9A54",
"m. c #F79A57",
"M. c #E7A348",
"N. c #EFA05D",
"B. c #FFB856",
"V. c #EF9678",
"C. c #F3966A",
"Z. c #FFBF6F",
"A. c #FFBE73",
"S. c #FFCC45",
"D. c #FFCC4C",
"F. c #FFC544",
"G. c #FED343",
"H. c #FFD34B",
"J. c #FFD949",
"K. c #FBD847",
"L. c #FFC453",
"P. c #FECB55",
"I. c #FFCD5A",
"U. c #FFC758",
"Y. c #EFDC5B",
"T. c #FED754",
"R. c #FFE84B",
"E. c #F4F242",
"W. c #FEF344",
"Q. c #FEFD43",
"!. c #FEF54B",
"~. c #FEFC4A",
"^. c #FFEB54",
"/. c #FFEB5F",
"(. c #FFF454",
"). c #FFFD52",
"_. c #FFF35D",
"`. c #FFFE5A",
"'. c #FFC56B",
"]. c #FFC96D",
"[. c #FEC864",
"{. c #FFD162",
"}. c #FFCB71",
"|. c #FFC47C",
" X c #FFC573",
".X c #FED07A",
"XX c #FFDE7B",
"oX c #FFEC63",
"OX c #FFE96A",
"+X c #FFE569",
"@X c #FFF364",
"#X c #FFF864",
"$X c #FFF26B",
"%X c #FFE373",
"&X c #FFED73",
"*X c #FFEB7A",
"=X c #FFE77C",
"-X c #FFF175",
";X c #FFF67A",
":X c #FFDA84",
">X c #FFD586",
",X c #FFC594",
"<X c #FFE68A",
"1X c #FFE682",
"2X c #FFF4CC",
"3X c #FFEEDD",
"4X c #FFF4DC",
"5X c #FFF6D1",
"6X c #FFF0E2",
"7X c None",
/* pixels */
"7X7X7X7X7X7X7X7X7X7X7X7X7X7X7X7X7X7X7X7X7X7X7X7X7X7X7X7X7X7X7X7X7X7X7X7X7X7X7X7X7X7X7X7X7X7X7X7X7X7X7X7X7X7X7X7X7X7X7X7X",
"7X7X7X7X7X7X7X7X7X7X7X7X7X7X7X7X7X7X7X7X7X7X7X7X7X7X7X7X7X7X7X7X7X7X7X7X7X7X7X7X7X7X7X7X7X7X7X7X7X7X7X7X7X7X7X7X7X7X7X7X",
"7X7X7X7X7X7X7X7X7X7X7X7X7X7X7X7X7X7X7X7X7X7X7X7X7X7X7X7X7X7X7X7X7X7X7X7X7X7X7X7X7X7X7X7X7X7X7X7X7X7X7X7X7X7X7X7X7X7X7X7X",
"7X7X7X7X7X7X7X7X7X7X7X7X7X7X7X7X7X7X7X7X7X7X7X7X7X7X7X7X7X7X7X7X7X7X7X7X7X7X7X7X7X7X7X7X7X7X7X7X7X7X7X7X7X7X7X7X7X7X7X7X",
"7X7X7X7X7X7X7X7X7X7X7X7X7X7X7X7X7X7X7X7X7X7X7X7X7X7X7X7X7X7X7X7X7X7X7X7X7X7X7X7X7X7X7X7X7X7X7X7X7X7X7X7X7X7X7X7X7X7X7X7X",
"7X7X7X7X7X7X7X7X7X7X7X7X7X7X7X7X7X7X7X7X7X7X7X7X7X7X7X7X7X7X7X7X7X7X7X7X7X7X7X7X7X7X7X7X7X7X7X7X7X7X7X7X7X7X7X7X7X7X7X7X",
"7X7X7X7X7X7X7X7X7X7X7X7X7X7X7X7X7X7X7X7X7X7X7X7X7X7X7X7X7X7X7X7X7X7X7X7X7X7X7X7X7X7X7X7X7X7X7X7X7X7X7X7X7X7X7X7X7X7X7X7X",
"7X7X7X7X7X7X7X7X7X7X7X7X7X7X7X7X7X7X7X7X7X7X7X7X7X7X7X7X7X7X7X7X7X7X7X7X7X7X7X7X7X7X7X7X7X7X7X7X7X7X7X7X7X7X7X7X7X7X7X7X",
"7X7X7X7X7X7X7X7X7X7X7X7X7X7X7X7X7X7X7X7X7X7X7X7X7X7X7X7X7X7X7XH V Z L ~ R j.7X7X7X7X7X7X7X7X7X7X7X7X7X7X7X7X7X7X7X7X7X7X",
"7X7X7X7X7X7X7X7X7X7X7X7X7X7X7X7X7X7X7X7X7X7X7X7X7X7X7X7X7X7X7X7X7XN K 7X7Xk.7X7X7X7X7X7X7X7X7X7X7X7X7X7X7X7X7X7X7X7X7X7X",
"7X7X7X7X7X7X7X7X7X7X7X7X7X7X7X7X7X7X7X7X7X7X7X7X7X7X7X7X7X7X7X7X7X7X7X7X7X7X7X7X7X7X7X7X7X7X7X7X7X7X7X7X7X7X7X7X7X7X7X7X",
"7X7X7X7X7X7X7X7X7X7X7X7X7X7X7X7X7X7X7X7X7X7X7X7X7X7X7X7X7XB.7X7X7X7X7X7X7X7X7X7X7X7X7X7X7X7X7X7X7X7X7X7X7X7X7X7X7X7X7X7X",
"7X7X7X7X7X7X7X7X7X7X7X7X7X7X7X7X7X7X7X7X7X7X7X7X7X7X7X7XL.L.l.7X7X7X7X7X7X7X7X7X7X7X7X7X7X7X7X7X7X7X7X7X7X7X7X7X7X7X7X7X",
"7X7X7X7X7X7X7X7X7X7X7X7X7X7X7X7X7X7X7X7X7X7X7X7X7X7X7XD.O.a 7X7X7X7X7X7X7X7X7X7X7X7X7X7X7X7X7X7X7X7X7X7X7X7X7X7X7X7X7X7X",
"7X7X7X7X7X7X7X7X7X7X7X7X7X7X7X7X7X7X7X7X7X7X7X7X7X7XI.3.:.n 7X7X7X7X7X7X7X7X7X7X7X7X7X7X7X7X7X7X7X7X7X7X7X7X7X7X7X7X7X7X",
"7X7X7X7X7X7X7X7X7X7X7X7X7X7X7X7X7X7X7X7X7X7X7X7X7X'.S...0 C 7X7X7X7X7X7X7X7X7X7X7X7X7X7X7X7X7X7X7X7X7X7X7X7X7X7X7X7X7X7X",
"7X7X7X7X7X7X7X7X7X7X7X7X7X7X7X7X7X7X7X7X7X7X7X7X7X[.H.r.>.&.7X7X7X7X7X7X7X7X7X7X7X7X7X7X7X7X7X7X7X7X7X7X7X7X7X7X7X7X7X7X",
"7X7X7X7X7X7X7X7X7X7X7X7X7X7X7X7X7X7X7X7X7X7X7X7X7X6 8.` P.1.D 7X7X7X7X7X7X7X7X7X7X7X7X7X7X7X7X7X7X7X7X7X7X7X7X7X7X7X7X7X",
"7X7X7X7X7X7X7X7X7X7X7X7X7X7X7X7X7X7X7X7X7X7X7X7X7X7Xm 9.} h t H 7X7X7X7X7X7X7X7X7X7X7X7X7X7X7X7X7X7X7X7X7X7X7X7X7X7X7X7X",
"7X7X7X7X7X7X7X7X7X7X7X7X7X7X7X7X7X7X7X7X7X7X7X7X7X7X7Xm >.;.h z Q 7X7X7X7X7X7X7X7X7X7X7X7X7X7X7X7X7X7X7X7X7X7X7X7X7X7X7X",
"7X7X7X7X7X7X7X7X7X7X7X7X7X7X7X7X7X7X7X7X7X7X7X7X7X7X7X7X%.:.[ :.Y ~ 7X7X7X7X7X7X7X7X7X7X7X7X7X7X7X7X7X7X7X7X7X7X7X7X7X7X",
"7X7X7X7X7X7X7X7X7X7X7X7X7X7X7X7X7X7X7X7X7X7X7X7X7X7X7X7XC 8 5.} h C 7X7X7X7X7X7X7X7X7X7X7X7X7X7X7X7X7X7X7X7X7X7X7X7X7X7X",
"7X7X7X7X7X7X7X7X7X7X7X7X7X7X7X7X7X7X7X7X7X7X7X7X7X7X7X7XB g } ;.:.e z.7X7X7X7X7X7X7X7X7X7X7X7X7X7X7X7X7X7X7X7X7X7X7X7X7X",
"7X7X7X7X7X7X7X7X7X7X7X7X7X7X7X7X7X7X7X7X7X7X7X7X7X7X7Xz.q ;.5.F.[ 6.C 7X7X7X7X7X7X7X7X7X7X7X7X7X7X7X7X7X7X7X7X7X7X7X7X7X",
"7X7X7X7X7X7X7X7X7X7X7X7X7X7X7X7X7X7X7X7X7X7X7X7XI Y v l 0 O.' S.7.] h V 7X7X7X7X7X7X7X7X7X7X7X7X7X7X7X7X7X7X7X7X7X7X7X7X",
"7X7X7X7X7X7X7X7X7X7X7X7X7X7X7X7X7X7X7X7X7X7X7XS c f d :.{  .7.e.X.@.| x 7X7X7X7X7X7X7X7X7X7X7X7X7X7X7X7X7X7X7X7X7X7X7X7X",
"7X7X7X7X7X7X7X7X7X7X7X7X7X7X7X7X7X7X7X7X7X7X=.x s d ;.5.X. .u.t.u. .#.q z.7X7X7X7X7X7X7X7X7X7X7X7X7X7X7X7X7X7X7X7X7X7X7X",
"7X7X7X7X7X7X7X7X7X7X7X7X7X7X7X7X7X7X7X7X7X7Xi g j ;.} O...u.w.u.t.G.| 6.B 7X7X7X7X7X7X7X7X7X7X7X7X7X7X7X7X7X7X7X7X7X7X7X",
"7X7X7X7X7X7X7X7X7X7X7X7X7X7X7X7X7X7X7X7X7XP t 5.5.X.$.r.D.H.T.G.u.u.2.6.q B 7X7X7X7X7X7X7X7X7X7X7X7X7X7X7X7X7X7X7X7X7X7X",
"7X7X7X7X7X7X7X7X7X7X7X7X7X7X7X7X7X7X7X7XF w :.4.e.G.w.R.H.D.H.G.u.H.D.2.] 0 7 7X7X7X7X7X7X7X7X7X7X7X7X7X7X7X7X7X7X7X7X7X",
"7X7X7X7X7X7X7X7X7X7X7X7X7X7X7X7X7X7X7X7XV x 4.S.G.u.u.e.G.J.G.G.H.G.H.G.#.5.y D 7X7X7X7X7X7X7X7X7X7X7X7X7X7X7X7X7X7X7X7X",
"7X7X7X7X7X7X7X7X7X7X7X7X7X7X7X7X7X7X7XT Z <.L.S.G.u.H.G.u.t./ u.u.G.K.G.H.-.<.m.7X7X7X7X7X7X7X7X7X7X7X7X7X7X7X7X7X7X7X7X",
"7X7X7X7X7X7X7X7X7X7X7X7X7X7X7X7X7X7X7XA m.5 A.}.P.H.D.S.t.W.W.d.y.y.R.S.I.M.* X K D 7X7X7X7X7X7X7X7X7X7X7X7X7X7X7X7X7X7X",
"7X7X7X7X7X7X7X7X7X7X7X7X7X7X7X7X7X7XH N b.* - & .X{.( ) a.Q.Q.d.d.W.q.Y..X< 3X; k U 7X7X7X7X7X7X7X7X7X7X7X7X7X7X7X7X7X7X",
"7X7X7X7X7X7X7X7X7X7X7X7X7X7X7X7X7X7Xb 1.x.- 2X4X& 6 ^.~.~.g.f.~.~.W.).Y.o 6X3X  <.l W 7X7X7X7X7X7X7X7X7X7X7X7X7X7X7X7X7X",
"7X7X7X7X7X7X7X7X7X7X7X7X7X7X7X7X7X7XN :.9.}.o 5X2X= $X!.~.Q.g.d.d.).(.&X% 6X= |.,.t D 7X7X7X7X7X7X7X7X7X7X7X7X7X7X7X7X7X",
"7X7X7X7X7X7X7X7X7X7X7X7X7X7X7X7X7X7Xt ;.-.U. X& = 2 # @ !.f.~.Q.Q.W.@ # O + {.P.5.q S 7X7X7X7X7X7X7X7X7X7X7X7X7X7X7X7X7X",
"7X7X7X7X7X7X7X7X7X7X7X7X7X7X7X7X7XW x [ 5.T.U._ %X*X1X&XW.s.g.Q.f.!.&X=X<X*XJ.u.{ y *.7X7X7X7X7X7X7X7X7X7X7X7X7X7X7X7X7X",
"7X7X7X7X7X7X7X7X7X7X7X7X7X7X7X7X7XQ p 5.S.r.D./ @X_._.`.d.p.f.f.g.Q.!._.#X^.i.u.O.h J 7X7X7X7X7X7X7X7X7X7X7X7X7X7X7X7X7X",
"7X7X7X7X7X7X7X7X7X7X7X7X7X7X7X7X7XW a ;.+.e.S.) !.!.).E.Q.f.s.s.g.f.f.W.(.^.i.u.O.,.Q 7X7X7X7X7X7X7X7X7X7X7X7X7X7X7X7X7X",
"7X7X7X7X7X7X7X7X7X7X7X7X7X7X7X7X7XT C ;.5.e.t.R.~.E.#X_.~.Q.f.f.s.s.Q.W.oX&XH.H.4.b.; 7X7X7X7X7X7X7X7X7X7X7X7X7X7X7X7X7X",
"7X7X7X7X7X7X7X7X7X7X7X7X7X7X7X7X7X7XC 0.-.G.t.a.f.`.-X@ oX(.).~.f.f.E.#X2 - P.P.8.* ! 7X7X7X7X7X7X7X7X7X7X7X7X7X7X7X7X7X",
"7X7X7X7X7X7X7X7X7X7X7X7X7X7X7X7X7X7Xv >.,.P.e.t.W.@X>X= $ $ oX(.~.(.;X+ ; ;  XM.n.; j.7X7X7X7X7X7X7X7X7X7X7X7X7X7X7X7X7X",
"7X7X7X7X7X7X7X7X7X7X7X7X7X7X7X7X7X7XL Y . x.I.T.G.OX- = <X=X1 OX^.@X:X- ,X  - m.C.  7X7X7X7X7X7X7X7X7X7X7X7X7X7X7X7X7X7X",
"7X7X7X7X7X7X7X7X7X7X7X7X7X7X7X7X7X7X7XQ ; , ;  Xr 9 > <X/.$X- - ;XOX- * }.].* V.4 ^ 7X7X7X7X7X7X7X7X7X7X7X7X7X7X7X7X7X7X",
"7X7X7X7X7X7X7X7X7X7X7X7X7X7X7X7X7X7X7XT L c.; : '.5 & =X^.^.>X> XX# = |.I.U.: . . E 7X7X7X7X7X7X7X7X7X7X7X7X7X7X7X7X7X7X",
"7X7X7X7X7X7X7X7X7X7X7X7X7X7X7X7X7X7X7X7XL <.<.0.: ; ; %.( +X:X- - - U.T.2.-.v.N ! 7X7X7X7X7X7X7X7X7X7X7X7X7X7X7X7X7X7X7X",
"7X7X7X7X7X7X7X7X7X7X7X7X7X7X7X7X7X7X7X7XF t 0.>.v.b.'.L.( ( r ]. X].S.3.4.:.h K 7X7X7X7X7X7X7X7X7X7X7X7X7X7X7X7X7X7X7X7X",
"7X7X7X7X7X7X7X7X7X7X7X7X7X7X7X7X7X7X7X7X7XG B ,.:.;.6.2.S.H.S.D.P.4.5.;.<.i m 7X7X7X7X7X7X7X7X7X7X7X7X7X7X7X7X7X7X7X7X7X",
"7X7X7X7X7X7X7X7X7X7X7X7X7X7X7X7X7X7X7X7X7X7XQ n z :.[ 5.o.o.4.X.7.{ 0.a M z.7X7X7X7X7X7X7X7X7X7X7X7X7X7X7X7X7X7X7X7X7X7X",
"7X7X7X7X7X7X7X7X7X7X7X7X7X7X7X7X7X7X7X7X7X7X7X7XT V l :.[ [ 6.:.x u H h.7X7X7X7X7X7X7X7X7X7X7X7X7X7X7X7X7X7X7X7X7X7X7X7X",
"7X7X7X7X7X7X7X7X7X7X7X7X7X7X7X7X7X7X7X7X7X7X7X7X7X7XL N i t B b A 7X7X7X7X7X7X7X7X7X7X7X7X7X7X7X7X7X7X7X7X7X7X7X7X7X7X7X",
"7X7X7X7X7X7X7X7X7X7X7X7X7X7X7X7X7X7X7X7X7X7X7X7X7X7X7X7X7X7X7X7X7X7X7X7X7X7X7X7X7X7X7X7X7X7X7X7X7X7X7X7X7X7X7X7X7X7X7X7X",
"7X7X7X7X7X7X7X7X7X7X7X7X7X7X7X7X7X7X7X7X7X7X7X7X7X7X7X7X7X7X7X7X7X7X7X7X7X7X7X7X7X7X7X7X7X7X7X7X7X7X7X7X7X7X7X7X7X7X7X7X",
"7X7X7X7X7X7X7X7X7X7X7X7X7X7X7X7X7X7X7X7X7X7X7X7X7X7X7X7X7X7X7X7X7X7X7X7X7X7X7X7X7X7X7X7X7X7X7X7X7X7X7X7X7X7X7X7X7X7X7X7X",
"7X7X7X7X7X7X7X7X7X7X7X7X7X7X7X7X7X7X7X7X7X7X7X7X7X7X7X7X7X7X7X7X7X7X7X7X7X7X7X7X7X7X7X7X7X7X7X7X7X7X7X7X7X7X7X7X7X7X7X7X",
"7X7X7X7X7X7X7X7X7X7X7X7X7X7X7X7X7X7X7X7X7X7X7X7X7X7X7X7X7X7X7X7X7X7X7X7X7X7X7X7X7X7X7X7X7X7X7X7X7X7X7X7X7X7X7X7X7X7X7X7X",
"7X7X7X7X7X7X7X7X7X7X7X7X7X7X7X7X7X7X7X7X7X7X7X7X7X7X7X7X7X7X7X7X7X7X7X7X7X7X7X7X7X7X7X7X7X7X7X7X7X7X7X7X7X7X7X7X7X7X7X7X",
"7X7X7X7X7X7X7X7X7X7X7X7X7X7X7X7X7X7X7X7X7X7X7X7X7X7X7X7X7X7X7X7X7X7X7X7X7X7X7X7X7X7X7X7X7X7X7X7X7X7X7X7X7X7X7X7X7X7X7X7X",
"7X7X7X7X7X7X7X7X7X7X7X7X7X7X7X7X7X7X7X7X7X7X7X7X7X7X7X7X7X7X7X7X7X7X7X7X7X7X7X7X7X7X7X7X7X7X7X7X7X7X7X7X7X7X7X7X7X7X7X7X"
};
