/* XPM */
static char *fbb5f7df5d2e49fab3f9abc8e164451cDMVGyF7cQS2FB8Ll[] = {
/* columns rows colors chars-per-pixel */
"60 60 160 2 ",
"   c #734A1F",
".  c #764B20",
"X  c #7C5122",
"o  c #805525",
"O  c #855927",
"+  c #84572A",
"@  c #875B28",
"#  c #8A5E2B",
"$  c #8E622C",
"%  c #93652E",
"&  c #95682F",
"*  c #98682F",
"=  c #966930",
"-  c #9B6D33",
";  c #976539",
":  c #99673A",
">  c #9E6C3B",
",  c #9F7035",
"<  c #A06E3C",
"1  c #A57536",
"2  c #A77837",
"3  c #A87937",
"4  c #A5733B",
"5  c #A9763E",
"6  c #A77838",
"7  c #AB7A3A",
"8  c #B17E3C",
"9  c #AD7B40",
"0  c #B17E41",
"q  c #BA7F40",
"w  c #B3823E",
"e  c #B9823F",
"r  c #B58342",
"t  c #BD8341",
"y  c #BE8240",
"u  c #BF8240",
"i  c #BF8241",
"p  c #BF8341",
"a  c #BE8140",
"s  c #B88640",
"d  c #B88641",
"f  c #B88741",
"g  c #B98741",
"h  c #B88543",
"j  c #BF8441",
"k  c #BF8442",
"l  c #BF8542",
"z  c #B98644",
"x  c #BA8744",
"c  c #BC8441",
"v  c #B88841",
"b  c #B98841",
"n  c #BA8841",
"m  c #BA8842",
"M  c #BB8942",
"N  c #BD8842",
"B  c #BC8A43",
"V  c #BD8A43",
"C  c #BD8B43",
"Z  c #BF8A43",
"A  c #BE8B43",
"S  c #BE8C43",
"D  c #BB8844",
"F  c #BB8944",
"G  c #BC8944",
"H  c #BC8845",
"J  c #BC8945",
"K  c #BD8B44",
"L  c #BC8A45",
"P  c #BD8A45",
"I  c #BE8B44",
"U  c #BF8B44",
"Y  c #BE8B45",
"T  c #BE8C44",
"R  c #BF8C44",
"E  c #BF8D44",
"W  c #BF8C45",
"Q  c #BF8D45",
"!  c #BF8C46",
"~  c #BD8A44",
"^  c #C08241",
"/  c #C08341",
"(  c #C08441",
")  c #C18442",
"_  c #C08542",
"`  c #C18542",
"'  c #C08642",
"]  c #C08743",
"[  c #C18743",
"{  c #C08642",
"}  c #C08843",
"|  c #C18843",
" . c #C18943",
".. c #C28943",
"X. c #C08944",
"o. c #C18944",
"O. c #C18A44",
"+. c #C18B44",
"@. c #C28A44",
"#. c #C38A44",
"$. c #C28B44",
"%. c #C18C45",
"&. c #C08D45",
"*. c #C28C45",
"=. c #C38C45",
"-. c #C28D45",
";. c #C38D45",
":. c #C08E45",
">. c #C18E45",
",. c #C08D46",
"<. c #C18D46",
"1. c #C28D46",
"2. c #C18E46",
"3. c #C18F46",
"4. c #C28E46",
"5. c #C38E46",
"6. c #C28F46",
"7. c #C38F46",
"8. c #C28F47",
"9. c #C48C45",
"0. c #C58E46",
"q. c #C48F46",
"w. c #C58F47",
"e. c #C28D45",
"r. c #C29046",
"t. c #C39046",
"y. c #C29047",
"u. c #C39047",
"i. c #C39147",
"p. c #C49046",
"a. c #C49047",
"s. c #C59047",
"d. c #C49147",
"f. c #C59147",
"g. c #C69147",
"h. c #C49247",
"j. c #C59247",
"k. c #C69247",
"l. c #C69347",
"z. c #C49147",
"x. c #C49148",
"c. c #C49248",
"v. c #C59248",
"b. c #C59348",
"n. c #C69248",
"m. c #C69348",
"M. c #C79348",
"N. c #C69448",
"B. c #C79448",
"V. c #C69449",
"C. c #C79449",
"Z. c #C69348",
"A. c #C89449",
"S. c #C89549",
"D. c #C99549",
"F. c #C99649",
"G. c #C9964A",
"H. c #CA974A",
"J. c #C89549",
"K. c #CC984B",
/* pixels */
"7.'  .d.d.u.d.d.d.d.O.7.d.d.d.b.b.P P b.7.M d.d.E < 5 u.d.d.d.d.b.d.d.d.Z s E b.u.d.s r d.' a 7.u.u.d.d.d.b.b.b.q.' O.d.",
"O.a a 7.b.b.d.u.d.d.j O.b.d.7.D 9 < > r S 2 E b.P < 5 d.d.d.d.d.Z 7.b.g 2 2 1 g b.d.5 4 7./ / ' 4 5 b.u.b.M w w t a a 7.",
"7.'  .d.P r 8 2 M V.7.d.E 5 < > > < > < 7.7.u.d.d.7.u.b.b.d.b.E 2 M b.E g w 2 7 d.d.7.7.d.e 8 ' 0 r d.u.b.w 2 2 2 7 a 7.",
"d. .' d.0 4 2 7 7 Z b.7.4 > < < < < > 4 u.b.d.d.d.d.d.w w d.d.d.7.d.d.b.V.b.r E d.d.d.b.Z 6 2 w D.b.d.d.d.b.E w 7 2 Z d.",
"7.a a q.M 2 M 7.2 7 D.9 > < < < < < > z b.u.d.d.d.b.Z 2 7 d.7.M d.d.d.O.O.r > E d.d.d.D.Z 2 6 6 g 7.7.d.d.d.d.b.7.Z d.d.",
"d.' ' q.d.7.V.O.8 E b.5 > < < < < < > z d.u.d.d.d.d.8 2 e b.E 2 Z b.d.O.a q 0 u.d.d.M w w 6 2 1 1 6 7 d.d.d.d.b.b.b.d.d.",
"d.d.d.d.w g d.7.P D.D.r > < < > > > < 7.V.b.d.d.d.7.6 6 a d.d.7.u.d.d.d.7.' q.b.d.b.8 2 2 1 7 6 1 6 M 7.j O.E w Z d.d.d.",
"d.d.d.D.= # Z 7.M s 7 d.5 > > 4 5 5 P d.9 9 b.E 4 5 6 6 O.d.d.d.d.d.d.d.d.d.d.u.7 Z g 2 w E b.w 2 7 b.j a ' 8 4 w b.d.d.",
"d.d.7.u.2   % = # # $ b.d.D z u.d.d.V.P > < P 7 1 2 2 w b.d.d.d.d.d.d.d.d.d.b.u.7 P w 2 w b.b.g 2 w b.j a ' P w E d.7.d.",
"b.Z 6 6 7 % - 6 u.> , D.u.b.b.d.d.d.d.d.z 7.g 2 6 w M d.d.d.d.d.d.d.d.b.E 6 s b.b.b.7 < 7 d.b.P 2 M b.7.O.7.b.b.b.' a O.",
"b.g 2 6 6 6 7 K.b.Z E b.d.d.d.d.d.d.d.d.V.d.d.7.7.b.q. .7.d.d.d.d.d.d.b.w 4 7 d.u.d.0 > r b.d.d.Z u.d.d.d.d.d.u.d.O.a 7.",
"d.d.M 7 2 6 u.d.7.'  .d.d.d.d.d.d.d.d.b.g < 9 b.d.d.j a a 7.d.d.d.d.d.d.7.M d.b.u.b.d.u.d.d.d.d.b.d.d.d.d.d.d.d.d.d.7.d.",
"d.u.D.M 2 6 7.b.O.a a d.d.d.d.d.d.d.d.d.5 : < 7.d.d.j a a 7.d.d.d.d.d.u.D.w - 7.D.P 7.w 7.d.d.d.u.d.d.d.d.d.d.d.d.d.d.d.",
"w 6 E b.w w d.d.d.O.7.d.d.u.d.b.d.d.d.d.t 5 r d.d.d.7.' O.d.d.d.d.d.d.u.b.4   $ 2 # % # g b.d.d.d.7.7.d.d.d.7.d.d.d.d.d.",
"s 6 7.d.q.b.d.d.d.d.d.b.b.b.E D u.d.d.7.7.d.b.d.d.d.d.b.V.b.d.d.d.d.d.d.d.7.4 % - w g - 7.d.d.d.7.5 < z b.7.a 7.b.P < z ",
"d.d.q.j a O.d.d.d.d.u.E P 0 < > 5 d.d.4 9 V.u.d.d.d.d.7.g E d.b.b.d.d.d.d.b.u.4 D.D.7.w V.d.d.d.P > : 0 V.u.d.d.d.P 5 P ",
"d.b.O.a a ' d.d.d.7.7 3 1 > < < > P r : r b.u.d.d.d.u.7 2 6 u.M s d.d.d.d.d.b.d.P 0 4 4 r b.d.d.d.r 9 7.d.d.d.d.d.d.d.d.",
"d.d.7.' a O.d.d.b.5 2 6 6 4 < > 4 D 4 < E b.d.d.d.b.d.6 6 6 8 6 2 E b.u.d.7.9 4 < > > > < 7.d.d.d.b.b.d.d.d.d.d.d. .a 7.",
"d.u.d.d.7.d.d.u.r < 6 6 6 6 1 4 s 0 : 5 ' 7.d.d.7.w s 7 2 1 2 6 2 M b.d.7.4 > > < < < > 4 7.d.d.d.d.d.d.d.d.d.d.d.' a O.",
"d.V.b.d.d.u.b.w 2 6 6 6 1 6 6 4 r r < q / ' d.b.M 4 2 2 6 7 6 1 w 7.d.b.r > < < < < > > s b.d.d.d.d.d.d.d.d.d.d.d.u.O.d.",
"7.9 s d.d.d.d.7.7 4 4 < 7 j 6 > D V.7.a a O.d.d.d.s g Z u.E 6 1 E b.u.b.9 > 4 1 1 < 4 t  .d.d.d.d.d.d.d.d.d. .a d.r > 7.",
"0 : < 7.d.d.d.d.b.0 > > 7 j 7 g b.d.d.7.7.d.d.d.d.b.d.q.b.7.6 6 7.d.u.b.r > 6 6 3 4 5 ' a d.d.d.b.b.b.d.d.d.' a q.D 9 u.",
"s < 5 d.b.d.d.d.d.d.P D P 2 w D.u.d.d.d.d.d.d.d.d.d.' a O.b.6 7 b.d.d.d.u.5 1 1 6 5 5 j 7.d.d.O.j w M b.d.d.d.7.d.V.D.d.",
"d.E d.z 9 u.d.d.d.d.d.b.b.s P b.d.d.d.d.d.d.d.d.d.d.O.a 7.b.P 7.b.d.d.u.d.d.r 2 s b.u.d.d.d.d.q.8 2 2 w b.d.d.b.M 7 E b.",
"d.d.d.P 5 > 0 d.d.d.d.d.d.b.d.d.d.d.d.d.d.d.d.d.d.d.d.d.d.d.b.b.d.b.b.b.d.d.d.M 7.d.d.d.d.d.d.V.g 1 1 7 d.d.d.d.7 2 6 g ",
"d.d.d.b.d.5 > P b.u.d.d.d.d.d.d.d.d.d.d.d.d.b.z z d.u.d.d.d.d.d.b.P w w 7.d.u.b.d.d.d.d.d.d.d.d.w 2 2 g b.d.d.b.w 1 2 w ",
"u.d.8 s b.b.9 5 u.d.d.d.d.' O.d.d.d.d.d.d.u.V.9 4 ' a O.d.d.d.d.b.w 4 2 7 d.b.u.d.d.d.d.d.d.d.7.6 6 s d.d.d.d.7.7 2 6 E ",
"5 4 7 S b.d.9 > 7.d.d.d.u.7.7.d.d.u.d.d.d.u.b.r < a a ' d.d.d.d.b.7.M w 2 w M d.d.d.d.d.d.d.d.d.7.u.b.d.d.d.b.Z 6 7 e ' ",
"s < 4 s 7.d.7.P d.d.d.b.D.b.u.b.b.D.d.d.d.d.V.P 4 a a  .d.d.d.b.M s V.b.s 2 8 b.d.d.d.d.d.d.d.d.d.d.d.d.d.d.d.b.7.' / ' ",
"D.P > > 5 d.d.d.d.u.D.8 = E D.s Z 7 7.b.z 5 5 5 4 7.7.b.b.d.d.b.g w b.d.b.u.d.d.d.d.d.d.d.b.d.d.d.d.d.d.d.d.d.O.' O.O.d.",
"b.r > < 4 7.d.b.d.u.b.7.X # - # % # g D.5 : > > 5 d.b.M Z d.g u.d.d.7.u.d.d.d.d.d.d.d.d.d.E 7.b.d.d.d.d.d.d.u.a a ' d.d.",
"7.4 < > 5 d.7.r P d.u.A.7 % 2 M Z , j d.P 0 g E d.b.M 2 1 E V.D.V.7.O.D.7.7.d.d.d.d.d.b.g 2 6 E b.b.d.7.7.7.d.' a ' d.d.",
"P > > < P D.9 : < P d.d.u.1 D.b.u.M q.7.V.D.D.d.d.b.7 2 6 7 = 2 7 $ w 7 # w D.7.u.d.d.b.7 2 2 s 7.9 4 4 1 4 5 7.7.d.d.d.",
"d.9 < r D.7.4 < > r V.7.d.q.7.d.d.b.d.d.P 9 r d.d.b.g 6 2 6 @ @ @ - # 6 & w D.9 P q.d.b.g 2 7 P 4 : < 2 1 > < 7.b.7.E d.",
"d.d.7.d.b.0 > < > D d.u.d. .7.d.d.u.u.b.5 > > D b.d.b.7.M g - % 6 6 7.b.2 d.' 7.7.7.d.d.d.7.r 9 5 9 7 w 7.P 7.d.d.5 < 7.",
"d.d.d.d.b.5 > > 0 d.b.b.d.b.b.d.d.d.D.D < < > D b.d.d.d.b.D.Z % 6 2 g b.7.z O.7.d.d.d.d.b.r > > 7.D.b.7.d.d.d.d.d.5 4 7.",
"d.d.d.u.b.D < 5 7.b.s Z b.7.O.u.d.P r 4 < 4 r d.d.d.d.d.d.u.b.w 2 2 w D.D r b.u.d.d.d.b.z > > s d.E w 2 g D.u.u.b.7.7.d.",
"d.b.7.6 w b.d.s 6 u.s 2 g ' a  .7.4 > 6 4 0 D.u.d.d.d.d.O.7.d.d.g 8 7.d.d.d.d.b.d.d.u.b.9 : 5 d.w 2 6 7 5 g 7 6 Z b.d.d.",
"b.Z 6 2 7 d.b.s 2 5 P w g ' a #.z > 1 3 1 z d.d.b.d.d.7.a O.d.d.d.' q.d.d.b.r 9 u.d.d.d.P 9 E u.1 2 5 4 > 4 6 2 7 V.d.d.",
"b.w 2 2 8 b.d.7.6 w b.7.w 7.O.d.s 4 6 2 5 b.V.d.E d.d. .a d.d.d.d.u.d.d.u.O.4 : 7.d.d.d.d.V.d.9 < 6 4 > < 4 2 2 g 7.E d.",
"d.7.6 8 E d.d.d.7.u.b.7.2 w V.b.w 2 6 6 4 5 r 7 1 t ' 7.7.d. .7.d.d.d.d.d.q.g r d.d.d.d.u.d.9 > < 1 4 < < < r Z b.r g V.",
"d.b.7.7.d.d.d.d.b.d.u.b.g 2 w b.7.s 6 6 6 2 2 1 4 5 q.d.d.d.q.d.d.d.O.' 7.b.d.b.d.d.d.d.d.7.< < < < < < > 5 b.b.u.V.r s ",
"d.d.7.a 7.d.d.q.r E d.d.b.Z 6 8 ' b.w 2 6 6 1 6 4 9 V.u.d.7.w b.d.7.a a ' u.d.u.d.d.7.d.b.E < > < < < < > 5 d.u.u.V.9 r ",
"d.d.d.d.d.d.d.7.j u.P O.d.b. .7 8 q.M 2 3 1 4 5 7 7.d.d.d.u.Z O.d.7.a j a  .d.d.7.7 6 8 7.d.5 < 4 > > 4 > 9 b.u.d.d.u.u.",
"d.d.d.d.d.d.d.d.b.d.4 5 b.V.O.' 8 Z u.7 6 M u.7.b.d.d.d.d.b.d.7.d.7.a a a  .d.b.w 2 6 2 w D.6 + : # % 4 # - D.d.d.d.d.7.",
"' O.d.d.d.d.d.d.d.7.5 z D.% @ j % O E b.u.b.d.d.d.d.d.d.b.d.d.d.d.d.7.' ' 7.d.d.7 6 6 2 w A.6 $ % 6 4 * 1 - D.E d.d.O.a ",
"7.q.b.d.d.d.d.u.d.7.# 2 2 # - X - @ E b.d.u.7.d.d.d.u.d.d.d.d.d.d.b.9 4 E b.u.d.w 2 6 3 5 P 7.& u.b.d.D.7 w 8 6 u.d.7.7.",
"b.u.7.b.d.d.d.d.u.b.4 . o 2 b.w E 4 V.u.d.7.O.d.d.d.d.d.b.b.d.d.7.r > > 5 d.d.O.O.w 6 4 > > r 2 g b.u.d.b.u.1 7 b.7.a  .",
"b.M 2 M b.d.d.d.b.D < # 4 d.d.b.u.b.u.d.d.d.d.d.d.7.7.d.E E E 5 < > < > 5 d.d.d.d.b.7.5 > 4 < 9 d.d.d.d.d.d.7.7.b.O.a ' ",
"b.d.7 w b.u.d.d.d.P < > > r b.d.d.d.b.b.d.d.d.d.7.j / g 6 6 1 > > < < > s b.d.d.d.u.d.d.7 1 6 > z b.d.d.d.d.d. .O.d.O.7.",
"r 5 7.u.7.d.d.d.d.7.4 < < > 9 D P z r g d.d.d.d.7.a ' 8 2 6 4 4 5 4 > 0 b.d.d.d.7.d.b.M 3 6 6 < z b.d.d.d.d.7.a a q.b.d.",
"9 > P 5 < 7.d.d.d.d.5 > < < > > > > > > t d.d.d.d.' / j 6 6 7 a ' 8 5 d.d.d.d.' a  .b.7 1 6 1 9 d.d.d.d.d.d.d. .' j 7.d.",
"d.7.V.r 5 u.d.O.7.b.g > > < < > > > > < P d.d.d.d.d.7.b.7.7.7.a a j d.d.d.d.7.a a a d.9 4 6 < r d.d.d.d.d.d.d.b.7.a O.d.",
"d.b.s e V.d.' a a 7.b.z 5 4 4 4 5 5 0 P d.d.d.d.V.d.d.d.d.d.u.' j 7.d.d.d.d.u.' a ' d.E 6 1 > 7 d.u.d.O.O.d.d.d.7.a  .d.",
"d.b.M Z b.d.j a ' q.d.b.d.7.7.7.u.d.b.d.d.d.d.d.r P d.d.d.d.b.d.d.d.d.d.b.d.b.7.7.d.u.b.g 2 > 0 b.b.q.a a  .d.d.d.7.d.d.",
"d.d.u.w P b.7.a 0 7.d.d.d.d.d.d.V.d.u.d.d.d.d.d.5 z b.u.V.Z s b.d.d.d.7.E u.7.d.b.d.d.b.d.8 w u.d.E g a a ' d.d.d.d.d.d.",
"d.V.Z 4 M b.V.0 ; 0 V.O.O.u.d.7.0 7.d.'  .d.d.d.d.d.d.u.O.Z E b.7.7 7 6 6 w 2 j  .7.d.M E b.d.b.E 6 2 e ' 7.b.b.d.d.d.b.",
"u.P d.g 9 E b.z 5 D q.a a  .V.9 : r #.a a O.d.d.d.d.d.' a / q.b.Z 2 2 2 w E w a a ' w 2 6 7.d.d.E 6 2 s V.u.w w u.w 7 M ",
"g 4 Z r ; 0 V.d.d.b.O.a a  .D > < P O.a a O.V.0 0 b.d.' a a 7.d.d.s w g d.b.d.a a ' g 6 8 u.d.d.u.6 2 w V.M 2 2 g 6 1 w ",
"E w 7.P 5 P d.u.d.d.d.' ' d.E 4 0 V.7. .O.d.b.r r b.d.7.'  .d.d.d.b.b.b.d.d.d.O.' 7.b.7.d.d.d.d.d.M w 7.b.7.7 w d.M w u."
};
