/* XPM */
static char *_8451_1f5d259965c2a53b9df7e9f08b9c1c5d6117739ebae1649452f18c20c532213e[] = {
/* columns rows colors chars-per-pixel */
"40 49 67 1 ",
"  c #000000",
". c #0A0605",
"X c #0C0806",
"o c #0D0C0C",
"O c #110A06",
"+ c #120E0C",
"@ c #180F0D",
"# c #14110E",
"$ c #1C120D",
"% c #110F11",
"& c #151312",
"* c #1A1613",
"= c #1D1915",
"- c #1E1C1A",
"; c #21130E",
": c #221511",
"> c #221B15",
", c #2B1C15",
"< c #241E1A",
"1 c #2C1E1A",
"2 c #311E1A",
"3 c #2D2017",
"4 c #26211D",
"5 c #2C231B",
"6 c #33241C",
"7 c #39251E",
"8 c #34281E",
"9 c #3A2A1E",
"0 c #262422",
"q c #2C2622",
"w c #2E2823",
"e c #2F2D29",
"r c #352722",
"t c #3A2621",
"y c #342A23",
"u c #3B2D23",
"i c #352E29",
"p c #392F29",
"a c #3D3026",
"s c #36302A",
"d c #3C322A",
"f c #3E3631",
"g c #412C1E",
"h c #422E23",
"j c #433225",
"k c #493425",
"l c #43352B",
"z c #4A3729",
"x c #44382E",
"c c #4B3A2C",
"v c #533C2D",
"b c #423730",
"n c #443A31",
"m c #4B3C32",
"M c #56402C",
"N c #59412F",
"B c #4E4136",
"V c #4B423A",
"C c #544234",
"Z c #5A4333",
"A c #52453B",
"S c #5A4639",
"D c #5A4A3C",
"F c #604C3C",
"G c #5E5146",
"H c #625041",
"J c None",
/* pixels */
"JJJJJJJJJJJJJJJJJJyyssJJJJJJJJJJJJJJJJJJ",
"JJJJJJJJJJJJJJJfsssysadyVAJJJJJJJJJJJJJJ",
"JJJJJJJJJJJJdfimxwfasaxyVBxBJJJJJJJJJJJJ",
"JJJJJJJJJJwesmwnDwduuudyxBfDClVJJJJJJJJJ",
"JJJJJJJJJes0dBd8B8yyy88wnzxCcyBCSJJJJJJJ",
"JJJJJJJJ&-fswlB4j8388854lyxzymCNjJJJJJJJ",
"JJJJJJ<w-*qx45c333#$$$$=35z8yZNufAJJJJJJ",
"JJJJJ--4i4=8a>3;O+OOOOOX.#,<dc8sGDSJJJJJ",
"JJJJJ-&<wx5=6;@;;$@OOO@@o  =u3qVDCzJJJJJ",
"JJJJ-w0&=in<@@;;O       Xo.X#=dxlxDSJJJJ",
"JJJJ&4px4:63;,+           .  &65dDDZNJJJ",
"JJJ0*&1lz3@,2X              X &yzvvcCJJJ",
"JJJ0wiw<36$;O               Xoo<68cSZZJJ",
"JJJ*<pdd8;,$                 &o+ixBMcvJJ",
"JJ-*=<5r9,6.                 .&o5stjjlJJ",
"JJ-wiryr,3:                   &X=5ilmmJJ",
"JJ&<6dnCtt@                   o%-daazj9J",
"JJ#*><696tX                   X&o>43338J",
"JJ4wpxllr1.                   .&=snlxlcJ",
"J&-3yaaytt                    .%=8jalkjJ",
"JJ#*<4336t                    .%o==,,36J",
"JJ-5sdmc76.                   .%&wsauuuJ",
"JJ45dmSvjr.                   .&*5y9ujgJ",
"JJ&4ruplt1.                   .%o=43698J",
"JJ-qfBCBr2                    .%*esxaajJ",
"J&*qxBCMht.                   .&*qraauuJ",
"J+%=4uaut6                     &o-45666J",
"Jw4qddaa62.                    %=wddaazJ",
"J=48dBau76                     &&5lzccvk",
"Jo#=389321                     %o=439999",
"J--455551,                     %o4wy89aJ",
"J-5dlaaa92                     %#rlzMNNJ",
"J#=4883366                     %%3rukkgJ",
"J&#=<=43,,                     &%458a9gz",
"J*448aju72                     %&ydmNvMM",
"Jo#=455371                     %+4rukkg9",
"J+#&=4431:                     %o&<43889",
"J&-45uda6:                     &*yxBDFDC",
"J##=5y997:                     o%4ydCZMz",
"J##&-4552*                     oo&==5558",
"Jqqsydcc7@                     oo=yplclj",
"J=<ylcck7:                     %%<ylcZvj",
"%X#$,3361>                     oo*359ukh",
"J+##=<1,,@                     o%<68ujjz",
"J*-qpph72@                     Xo0szvZZN",
"J#*<51216$                     oo=33ujkk",
"J++*:>,,6$                     oo&=>>333",
"<4wrjpbzh$                     o&qxxlcBB",
"o&<368a9t$                     X%=565uu9"
};
