/* XPM */
static char *_b17f0da54d84f13f8f55184d75e918a7Yqq8BdrQ9Gza1Gl[] = {
/* columns rows colors chars-per-pixel */
"60 60 176 2 ",
"   c None",
".  c #020202",
"X  c #0B0304",
"o  c #0B0A0B",
"O  c #170203",
"+  c #141313",
"@  c #1D1C1D",
"#  c #181516",
"$  c #280E10",
"%  c #251415",
"&  c #27211F",
"*  c #2E231F",
"=  c #33251E",
"-  c #3B291B",
";  c #3B271B",
":  c #201F20",
">  c #2B1F21",
",  c #371F21",
"<  c #1E2020",
"1  c #252324",
"2  c #292526",
"3  c #292728",
"4  c #272828",
"5  c #2C2A2C",
"6  c #382023",
"7  c #352A23",
"8  c #312D2E",
"9  c #2F2E30",
"0  c #312E31",
"q  c #343334",
"w  c #3E3B34",
"e  c #383739",
"r  c #3B3A3C",
"t  c #4B090D",
"y  c #78171C",
"u  c #422917",
"i  c #442A18",
"p  c #4A2F18",
"a  c #4C321B",
"s  c #4E3117",
"d  c #543416",
"f  c #5D3A17",
"g  c #533419",
"h  c #593719",
"j  c #5C3A19",
"k  c #593716",
"l  c #633C17",
"z  c #643E19",
"x  c #683F18",
"c  c #481E21",
"v  c #531F21",
"b  c #7A1D21",
"n  c #422F20",
"m  c #452123",
"M  c #532325",
"N  c #562628",
"B  c #42352D",
"V  c #473424",
"C  c #5A2E31",
"Z  c #413C3C",
"A  c #413732",
"S  c #583235",
"D  c #682528",
"F  c #712C2E",
"G  c #633033",
"H  c #793437",
"J  c #6B4116",
"K  c #674018",
"L  c #6C4219",
"P  c #714517",
"I  c #724518",
"U  c #774818",
"Y  c #7C4C18",
"T  c #57412C",
"R  c #664C36",
"E  c #6C523E",
"W  c #3F3E40",
"Q  c #413F41",
"!  c #763F42",
"~  c #424244",
"^  c #4A4643",
"/  c #464648",
"(  c #494749",
")  c #47484A",
"_  c #4B4B4C",
"`  c #4E4B46",
"'  c #544B45",
"]  c #5D4C4D",
"[  c #54524E",
"{  c #4E4F51",
"}  c #4F5052",
"|  c #525355",
" . c #565759",
".. c #57585A",
"X. c #59595B",
"o. c #5C5A52",
"O. c #6B4649",
"+. c #764A4C",
"@. c #724144",
"#. c #605D5E",
"$. c #696459",
"%. c #5D5F61",
"&. c #666565",
"*. c #696062",
"=. c #666769",
"-. c #6A696A",
";. c #66686B",
":. c #706364",
">. c #737166",
",. c #757374",
"<. c #7B7B7B",
"1. c #891D21",
"2. c #941F23",
"3. c #842E31",
"4. c #A7262C",
"5. c #BB2328",
"6. c #B4373C",
"7. c #C2242B",
"8. c #814F18",
"9. c #875319",
"0. c #AD3C41",
"q. c #85585A",
"w. c #925659",
"e. c #8A696C",
"r. c #817C6A",
"t. c #807777",
"y. c #8C7B7C",
"u. c #927B7C",
"i. c #9E7F7F",
"p. c #A27375",
"a. c #AB7074",
"s. c #85806D",
"d. c #8A8573",
"f. c #8D8974",
"g. c #918C77",
"h. c #9A957E",
"j. c #7F7E80",
"k. c #828282",
"l. c #8C8585",
"z. c #8F8887",
"x. c #8C8B8B",
"c. c #998687",
"v. c #8F8F91",
"b. c #8F9092",
"n. c #939293",
"m. c #979799",
"M. c #9A9A9A",
"N. c #9E9292",
"B. c #ABA78B",
"V. c #BDB899",
"C. c #BBB79D",
"Z. c #A4A3A4",
"A. c #A8A7A7",
"S. c #ACABAC",
"D. c #B6B6AD",
"F. c #BBBBBA",
"G. c #B6B6B6",
"H. c #C1BC9C",
"J. c #C2BEAA",
"K. c #C8C4A9",
"L. c #D1CFBC",
"P. c #C4C4C4",
"I. c #CACAC9",
"U. c #DCDBC9",
"Y. c #DAD9C7",
"T. c #D5D5D4",
"R. c #DCDCDD",
"E. c #DBDAD2",
"W. c #E0DFD0",
"Q. c #EAE8DC",
"!. c #E3E3E3",
"~. c #EDEDED",
"^. c #EAEAE2",
"/. c #F4F4F4",
"(. c #F7F8F8",
"). c #FEFEFE",
/* pixels */
"                                                                                                                        ",
"                                                                                                                        ",
"                                                                                                                        ",
"                                              Z *.=.;.+.1.1.3.*.=.X.8 3 1                                               ",
"                                              D a.c.i.p.0.5.5.p.n.c.k.j.X.e r e                                         ",
"                                          6 1.6.e.3.D S Q C 1.+.w.q.k.b.n.v.b.j.X./ 1     g a                           ",
"                                          c 2.@.O.m 1       M 8 D G ! :.y.x.x.v.m.x.-.q = L f                           ",
"                                          , v 3                     D N F w.u.x.x.x.n.-.V 8.h                           ",
"                                          1               1 1           > v H w.z.x.x.n.E J                             ",
"                                                      5 ~ ( ( e 5 5         , M q.l.x.x.R J                             ",
"                                          7.      5 e { ..X.X. .| { e 5       1 M ] k.$.x P                             ",
"                                          4.4.  e ( ..X.X.X.X.X.X.X...) e         2 | ' U l                             ",
"                                              e | X.X.%.%.X.X.X.X.X.X.X.| e         2 n U p                             ",
"                                            q } X.X.X.( / { X.X.X.X.X.X.X.| q       = l 9.p                             ",
"                                          0 { X.X.{ ` r.d.$.| X.X.X.X.X.|  .{ 0     p Y J                               ",
"                                        5 ( X. .` $.B.V.H.B.$.` X.X.X.X./ W / / 5   g I i                               ",
"                                        r X...[ h.V.U.Q.W.K.V.f.` X.X.X. .q 1 q q 3 g L                                 ",
"                                      q {  ._ g.K.U.~.R.).T.J.V.s._ X.X.../     3   g L                                 ",
"                                    5 _ ..( d.L.^.(.!.<.F.<.I.Y.C.>.( X.X._ 1       s L                                 ",
"                                    e ..~ x.E.&.( t.~.T.I.I./.z.w w o.( X. .e       L I                                 ",
"                                  q } / @ S.~.4 X y u.(.).).N.b O + D.>._ X.~ 5     I d                                 ",
"                                  ~ | 3 o S.(.-.X t $ n.).S.% t O | ~.P.5 {  .8     L s                                 ",
"                                q | ( 1 X x.(.!. .< @ ,.).n.@ < / T.).S.@ ~  .0   i I d                                 ",
"                                q  .e # . q !.).!.T.T.R.G.R.T.T.!.).~.( . 1 | 0   l Y                                   ",
"                                ~  .e o . o k.R.).).).Z.# k.).).).(.M.# . 1 | 0   f l                                   ",
"                              2 _  .~ 1 o . o | ~.).).m.5 <.(.).).T.1 . . 3 ( 5 ; J x                                   ",
"                              q | X.| ~ 3 o . e !.).)./.!./.).).).P.# . @ / r   p Y f                                   ",
"                              8 _ X...| e o . o <.T.~.T.T.T.~.(.P.X.. o 0  .r   p I                                     ",
"                                0 _ X.X._ 3 o . . e M.-.&.-.M.k.1 . . 1 ( X.r * f U                                     ",
"                                  e { ..X._ 3 + . . 1 1 1 1 1 . . . : / X. .e = I K                                     ",
"                                    3 r } X._ e 1 o . . . . . . + 1 ~ _ / q 3   L d                                     ",
"                                      1 q r ( | / r 1 + + + + 2 r ( ( 5 1       L d                                     ",
"                                            5 q q ( ~ Q ~ ~ r ~ e 0 5           I d                                     ",
"                                                1 5 0 e / r 0 q r 5           f Y g                                     ",
"                                                2 r ~ / { ) ~ ~ { / 1         l K                                       ",
"                                                e | | | X. .| | X.X.~ 1       Y x                                       ",
"                                              3 / _  ._ _ | X.X.| _ | r 1   = a -                                       ",
"                                            1 q { e .. .{ /  .../ Q { | Q 2 | ,.3                                       ",
"                                            5 _ _ e ..X.X. ...{ ~ q {  .~ 8 X.S.&.2                                     ",
"                                          1 r X.~ e ..| | X.X._ ( 5 /  .e #.<.G.,.3                                     ",
"                                          5 } | q e  ./ |  ...{ ( e ~  .e X.A.S./                                       ",
"                                        1 /  .{ q _ | { X.{ |  ._ e ~  .e k.A.k.2                                       ",
"                                      1 q { / _ q ( )  .X.| _  ./ 8 e | q  .,.r                                         ",
"                                      5 | | _ | q ( } X.X. ._  .| 5 2 e q = 2                                           ",
"                                    1 / X.| { _ 5 { X.X.X...| ..X.~ 1   7 l i                                           ",
"                                    1 e |  . ./ e  .X. . .X.X.X.X.| 3   u J i                                           ",
"                                      1 e { X./ ~ X. ._ | X.X.X.X.| q & f K -                                           ",
"                                        2 e / q ~ X._ /  .X.X.} _ X.~ & f d                                             ",
"                                          1 5 0 | X.( _ X.X.X._ / X./ 1 k d                                             ",
"                                            1 r ....( ( X.X.X.} / | ..B J d                                             ",
"                                  2 2       3 _ X.| ~ _ X. ... ./ {  .T J u   1                                         ",
"                                3 q 5     1 e ...._ ~ |  ._ {  .( _ ' L g     0 q                                       ",
"                                3 q 3     3 _ | ) ~ ( } ) ~ ~ } } ~ ^ x -     5 q 2                                     ",
"                          2   3 3 e e 5 3 / | / ~ ~ ~ ~ ~ ~ ~ ~ ~ ~ A l V q 5 r q 3 2   2                               ",
"                        3 q 5 e e _ | W r _ ~ ~ ~ ~ ~ ~ ~ ~ ~ ~ ~ Z a P B ~ / | / e q 5 q 2                             ",
"                          q e r r ~ ~ / / ~ ~ ~ ~ ~ ~ ~ ~ ~ ~ ~ ~ Z h l B ~ ~ ~ ~ r e e 9                               ",
"                            2 1 1 1 1 q e e e e ~ ~ ~ ~ ~ ~ ~ ~ ~ B l g q e 5 1 1 1 1 1                                 ",
"                                              2 5 0 0 0 0 0 0 0 9 7 h a                                                 ",
"                                                                                                                        ",
"                                                                                                                        "
};
