/* XPM */
static char *_742c16b505e47f3e8dccc11236cadd1hplXGwor2YvPLbGm[] = {
/* columns rows colors chars-per-pixel */
"60 60 177 2 ",
"   c None",
".  c #020202",
"X  c #0B0304",
"o  c #0B0A0B",
"O  c #170203",
"+  c #141313",
"@  c #1D1C1D",
"#  c #181516",
"$  c #280E10",
"%  c #251415",
"&  c #27211F",
"*  c #2E231F",
"=  c #33261E",
"-  c #3B291B",
";  c #3C271B",
":  c #221F21",
">  c #2B1F21",
",  c #3B1F22",
"<  c #321E21",
"1  c #1E2020",
"2  c #252324",
"3  c #292626",
"4  c #292729",
"5  c #272828",
"6  c #2D2B2C",
"7  c #352A23",
"8  c #322D2E",
"9  c #2F2E30",
"0  c #312E31",
"q  c #343334",
"w  c #3E3B34",
"e  c #383739",
"r  c #3B3A3C",
"t  c #393637",
"y  c #4B090D",
"u  c #78171C",
"i  c #422A17",
"p  c #4B2F17",
"a  c #442A18",
"s  c #4A2F19",
"d  c #4C321B",
"f  c #4E3116",
"g  c #543416",
"h  c #5A3717",
"j  c #5D3A17",
"k  c #543519",
"l  c #5B391B",
"z  c #583619",
"x  c #643C17",
"c  c #643E19",
"v  c #683F18",
"b  c #481E21",
"n  c #531F21",
"m  c #7A1D21",
"M  c #442822",
"N  c #532325",
"B  c #562628",
"V  c #42352D",
"C  c #473424",
"Z  c #5A2E31",
"A  c #413C3C",
"S  c #413732",
"D  c #583235",
"F  c #682528",
"G  c #712C2E",
"H  c #633033",
"J  c #793437",
"K  c #6B4116",
"L  c #674018",
"P  c #6C4219",
"I  c #714517",
"U  c #724518",
"Y  c #774818",
"T  c #7C4C18",
"R  c #57412C",
"E  c #664C36",
"W  c #6C523E",
"Q  c #3F3E40",
"!  c #413F41",
"~  c #763F42",
"^  c #424244",
"/  c #4A4643",
"(  c #464648",
")  c #494749",
"_  c #47484A",
"`  c #4B4B4C",
"'  c #4E4B46",
"]  c #544B45",
"[  c #5D4C4D",
"{  c #54524E",
"}  c #4E4F51",
"|  c #4F5052",
" . c #525355",
".. c #565759",
"X. c #57585A",
"o. c #59595B",
"O. c #5C5A52",
"+. c #6B4649",
"@. c #764A4C",
"#. c #724144",
"$. c #605D5E",
"%. c #696459",
"&. c #5D5F61",
"*. c #666565",
"=. c #696062",
"-. c #666769",
";. c #6A696A",
":. c #66686B",
">. c #706364",
",. c #737166",
"<. c #757374",
"1. c #7B7B7B",
"2. c #891D21",
"3. c #941F23",
"4. c #842E31",
"5. c #A7262C",
"6. c #BB2328",
"7. c #B4373C",
"8. c #C2242B",
"9. c #814F18",
"0. c #875319",
"q. c #AD3C41",
"w. c #85585A",
"e. c #925659",
"r. c #8A696C",
"t. c #817C6A",
"y. c #807777",
"u. c #8C7B7C",
"i. c #927B7C",
"p. c #9E7F7F",
"a. c #A27375",
"s. c #AB7074",
"d. c #85806D",
"f. c #8A8573",
"g. c #8D8974",
"h. c #918C77",
"j. c #9A957E",
"k. c #7F7E80",
"l. c #828282",
"z. c #8C8585",
"x. c #8F8887",
"c. c #8C8B8B",
"v. c #998687",
"b. c #8F8F91",
"n. c #8F9092",
"m. c #939293",
"M. c #979799",
"N. c #9A9A9A",
"B. c #9E9292",
"V. c #ABA78B",
"C. c #BDB899",
"Z. c #BBB79D",
"A. c #A4A3A4",
"S. c #A8A7A7",
"D. c #ACABAC",
"F. c #B6B6AD",
"G. c #BBBBBA",
"H. c #B6B6B6",
"J. c #C1BC9C",
"K. c #C2BEAA",
"L. c #C8C4A9",
"P. c #D1CFBC",
"I. c #C4C4C4",
"U. c #CACAC9",
"Y. c #DCDBC9",
"T. c #DAD9C7",
"R. c #D5D5D4",
"E. c #DCDCDD",
"W. c #DBDAD2",
"Q. c #E0DFD0",
"!. c #EAE8DC",
"~. c #E3E3E3",
"^. c #EDEDED",
"/. c #EAEAE2",
"(. c #F4F4F4",
"). c #F7F8F8",
"_. c #FEFEFE",
/* pixels */
"                                                                                                                        ",
"                                                                                                                        ",
"                                                                                                                        ",
"                                              2 4 8 o.-.=.4.2.2.@.:.-.=.A                                               ",
"                                        t r e o.k.l.v.m.a.6.6.q.a.p.v.s.F                                               ",
"                          d k     2 ^ o.k.n.b.m.n.l.w.e.@.2.Z ! D F 4.r.7.2.,                                           ",
"                          h P = q ;.c.M.b.c.c.u.>.~ H F 8 N       2 M +.#.3.b                                           ",
"                          h 9.C ;.m.c.c.c.i.e.G B F                     3 n ,                                           ",
"                            K W m.c.c.x.e.J n >           2 2               2                                           ",
"                            K E c.c.z.w.N <         6 6 e ) ) ^ 6                                                       ",
"                            I c %.l.[ N 2       6 e }  ...o.o.X.} e 6       8.                                          ",
"                            x Y ]  .3         t _ X.o.o.o.o.o.o.o.X.) t   5.5.                                          ",
"                            p Y M 3         t  .o.o.o.o.o.o.o.&.&.o.o. .t                                               ",
"                            s 0.x =       q  .o.o.o.o.o.o.o.} ( ) o.o.o.| q                                             ",
"                              K T p     0 } .. .o.o.o.o.o. .%.f.t.' } o.o.} 0                                           ",
"                              i U z   6 ( _ Q _ o.o.o.o.' %.V.J.C.V.%.` ..o.) 6                                         ",
"                                P g 4 q q 2 q ..o.o.o.` g.C.L.Q.!.Y.C.j.{ X.o.e                                         ",
"                                P k   4     ( X.o.o.` d.C.K.R._.E.^.Y.L.h.` ..} q                                       ",
"                                P f       3 ` o.o.) ,.Z.T.U.1.G.1.~.)./.P.f.) X.` 6                                     ",
"                                U P       t ..o.) O.w w x.(.U.U.R.^.y.) -.W.c.^ X.e                                     ",
"                                g U     6 ^ o.` ,.F.+ O m B._._.).i.u X 5 ^.D.@ ( | q                                   ",
"                                f P     8 ..} 6 I.^. .O y % D._.m.$ y X ;.).S.o 4  .^                                   ",
"                                g U a   0 ..^ @ S._.R.( 1 @ m._.<.@ 1 ..~.).c.. 2 )  .q                                 ",
"                                  T x   0  .3 . ) ^._.~.R.R.E.H.E.R.R.~._.~.q . # e ..q                                 ",
"                                  c j   0  .2 . + N.)._._._.l.+ A._._._.E.l.o . o t ..^                                 ",
"                                  v K ; 6 ) 6 . . 3 R._._.).1.6 M._._.^. .o . o 3 ^ ..` 3                               ",
"                                  j T p   r _ @ . + I._._._.(.~.(._._.~.t . o 4 ^  .o. .q                               ",
"                                    U s   r ..0 o . o.I.).^.R.R.R.^.R.1.o . o t  .o.o.` 6                               ",
"                                    Y h * r o.) 2 . . 2 l.N.;.-.;.N.t . . o 6 ` o.o.` q                                 ",
"                                    P U = e ..o._ : . . . 3 2 2 2 2 . . + 4 ` o.X.} t                                   ",
"                                    g P   4 q ( ` ^ 3 + . . . . . . o 2 e ` o.| r 6                                     ",
"                                    g P       2 6 ) ) r 3 + + + + 2 r (  .) r q :                                       ",
"                                    g U           6 0 e ^ r ^ ^ ! ^ ) q q 6                                             ",
"                                    k T j           6 r q 0 r ( e 0 6 2                                                 ",
"                                      L c         3 ( } ^ ^ _ } _ ^ r 3                                                 ",
"                                      c T       2 ^ o.o. . ...o. . . .e                                                 ",
"                                      - d =   2 r  .`  .o.o. .` ` ..` ( 6                                               ",
"                                      6 <. .3 !  .} ! ( X..._ } ..X.e } q 2                                             ",
"                                    3 *.D.o.8 ( ..} q ^ } X...o.o.X.e ` ` 6                                             ",
"                                    6 <.H.1.$.t ..( 6 ) ` o.o. . .X.t ^ o.r 2                                           ",
"                                      ( S.S.o.t ..^ t ) } X... ._ ..e q  .| 6                                           ",
"                                      3 l.S.l.e ..^ t ` .. .} o.}  .` q } .._ 2                                         ",
"                                        r <...q  .t 8 _ ..`  .o..._ ) q ` _ } q 2                                       ",
"                                          3 = q t 3 6  ...` ..o.o.| ) q  .`  . .6                                       ",
"                                          i x 7   3 ^ o.X. .X.o.o.o.} 6 ` }  .o.( 2                                     ",
"                                          a K a   6  .o.o.o.o.....o...e _ .... .e 2                                     ",
"                                          ; P j & q  .o.o.o.o. .` ..o.^ _ o.} e 3                                       ",
"                                            g j & ^ o.` | o.o..._ ` o.^ q _ e 3                                         ",
"                                            g h 2 _ o._ ` o.o.o.` ) o. .0 6 3                                           ",
"                                            g K V X. .( | o.o.o.) ) X.X.r 3                                             ",
"                                        3   a K R ..} ( ..X...o.` ^  .o.` 4       3 3                                   ",
"                                      0 0     z P ] ` _ ..} ` ....^ ` X.X.e 2     6 q 4                                 ",
"                                    3 q 6     - c / ^ | | ^ ^ _  .) ^ )  .` 4     6 q 6                                 ",
"                              3   3 6 q r 6 q C x S ^ ^ ^ ^ ^ ^ ^ ^ ^ ^ _  .( 4 6 e t 6 6   3                           ",
"                            3 q 6 q t _  .( ^ V I d A ^ ^ ^ ^ ^ ^ ^ ^ ^ ^ ^ ` r Q  .` e t 6 q 6                         ",
"                              9 t e r ^ ^ ^ ^ V x l A ^ ^ ^ ^ ^ ^ ^ ^ ^ ^ ^ ^ ( _ ^ ^ r r t q                           ",
"                                3 3 3 2 2 6 t q z c V ^ ^ ^ ^ ^ ^ ^ ^ ^ e t t t q 3 3 3 3 4                             ",
"                                                d z 7 9 0 0 0 0 0 0 0 6 4                                               ",
"                                                                                                                        ",
"                                                                                                                        "
};
