/* XPM */
static char *_f7f64b8346a4df588a0381ade423be6RU2tiGKSbShBNsF1[] = {
/* columns rows colors chars-per-pixel */
"60 60 146 2 ",
"   c #5A4733",
".  c #5D4A36",
"X  c #604D37",
"o  c #624E38",
"O  c #65513B",
"+  c #6A563E",
"@  c #6C583F",
"#  c #6E5940",
"$  c #735E43",
"%  c #766146",
"&  c #786247",
"*  c #7B6549",
"=  c #7F684C",
"-  c #826A4E",
";  c #826B4E",
":  c #836B4E",
">  c #826A4F",
",  c #836A4F",
"<  c #826B4F",
"1  c #836B4F",
"2  c #81694D",
"3  c #846B4F",
"4  c #836C4F",
"5  c #846C4F",
"6  c #826A4E",
"7  c #836B50",
"8  c #846B50",
"9  c #836C50",
"0  c #846C50",
"q  c #856C50",
"w  c #846D50",
"e  c #856D50",
"r  c #856C51",
"t  c #856D51",
"y  c #866D51",
"u  c #856E51",
"i  c #866E51",
"p  c #866D52",
"a  c #866E52",
"s  c #876E52",
"d  c #876F52",
"f  c #876E53",
"g  c #856D51",
"h  c #886E52",
"j  c #886F52",
"k  c #886F53",
"l  c #896F53",
"z  c #886F53",
"x  c #887053",
"c  c #897053",
"v  c #897054",
"b  c #897154",
"n  c #8A7054",
"m  c #8A7154",
"M  c #8B7154",
"N  c #8A7155",
"B  c #8B7155",
"V  c #8B7255",
"C  c #8C7255",
"Z  c #8C7355",
"A  c #8C7256",
"S  c #8C7356",
"D  c #8D7356",
"F  c #8C7257",
"G  c #8D7357",
"H  c #8E7356",
"J  c #8D7456",
"K  c #8D7457",
"L  c #8E7457",
"P  c #8F7457",
"I  c #8E7557",
"U  c #8F7557",
"Y  c #8C7255",
"T  c #8E7458",
"R  c #8F7458",
"E  c #8F7558",
"W  c #8F7459",
"Q  c #8F7559",
"!  c #8F7658",
"~  c #8F7558",
"^  c #907559",
"/  c #907659",
"(  c #917659",
")  c #907759",
"_  c #917759",
"`  c #91775A",
"'  c #92775A",
"]  c #92775B",
"[  c #917659",
"{  c #91785A",
"}  c #92785A",
"|  c #93795A",
" . c #92785B",
".. c #93785B",
"X. c #93795B",
"o. c #94795B",
"O. c #93795C",
"+. c #94795C",
"@. c #95795C",
"#. c #947A5C",
"$. c #957A5C",
"%. c #957A5D",
"&. c #957B5D",
"*. c #967A5D",
"=. c #967B5D",
"-. c #977B5D",
";. c #967B5E",
":. c #977B5E",
">. c #977C5D",
",. c #977C5E",
"<. c #957A5C",
"1. c #987C5E",
"2. c #987C5F",
"3. c #987D5F",
"4. c #997D5F",
"5. c #987D5F",
"6. c #997D60",
"7. c #997E60",
"8. c #9A7E60",
"9. c #9A7F60",
"0. c #9B7F60",
"q. c #9A7E61",
"w. c #9B7E61",
"e. c #9A7F61",
"r. c #9B7F61",
"t. c #9C7F61",
"y. c #9C7F62",
"u. c #9B7F61",
"i. c #9C8061",
"p. c #9C8062",
"a. c #9D8062",
"s. c #9D8162",
"d. c #9D8163",
"f. c #9E8163",
"g. c #9E8263",
"h. c #9E8264",
"j. c #9F8264",
"k. c #9F8364",
"l. c #9D8062",
"z. c #A08364",
"x. c #A08365",
"c. c #A08465",
"v. c #A18465",
"b. c #A18466",
"n. c #A48667",
"m. c #A08365",
/* pixels */
"% % % +   O & % & & & & % % O X $ % % % & * > > > > > * & % % % % $ + X . . + % % % & % % & & * p M ) ..L M k > * & % % ",
"% % % O . # = M ..r.r.:.p & O X % % % & p :.r.r.a.a.a.a...k * * & * & % @ X . O # p ..F M ) 4.a.r.r.t.r.4.r.a.a.4.) > % ",
"% % % O X > a.a.a.r.r.r.a.F +   X @ # # # @ $ * 8 W :.r.a.a.a.:.) :.) > & $ X . . p a.a.a.a.a.r.r.r.r.k * M r.r.> p 4.> ",
"% % % O X F r.L F 4.a.r.r.4.M # X .             . O # = W r.r.a.r.r.a.a.p % $ X . # ,.a.r.r.W W r.a...* % * :.M % $ p ..",
"% % & + X W ) $ $ M a.a.L * M 4.k * $ $ $ + + O X .   . O p r.4.p k r.a.:.* & + . . ) a.r.L $ % L j.) * & & :.9 $ % > ..",
"% % % + X W L $ % p r.a.* % % r.a.v.n.n.v.r.:.F 7 % O . . $ M M $ * ) a.r.p $ $ X   * r.a.p & & p j.:.* $ * 4.p % * :.W ",
"% % % O X ) W $ $ c r.a.* $ & r.r.) M W ) :.a.z.j.a.M + . $ > M $ * ..a.4.> $ & O . + :.a.M $ % F a.r.W p ) a.:.F :.r.= ",
"% & $ . X p r.> > :.a.a.F * p a.:.* $ & * > p F :.t.:.* . # > ,.> M r.a.) * % * + . O p a.,.k c r.r.r.a.j.a.r.r.a.a.p % ",
"& % O . . = v.,.r.a.r.r.r.:.r.r.L $ & % % $ $ % 3 4.p % X # k a.r.r.r.a.F $ & & @ . O % ,.a.a.a.r.r.r.r.r.r.r.a.:.p % % ",
"$ O . . . * z.r.r.r.r.r.r.a.r.r.) % & & & & & $ p p % $ . # M a.r.r.r.a.) & % & # X . $ p a.r.r.r.r.r.r.r.a.r.L * $ % & ",
"X . X X . $ r.r.r.r.r.r.r.r.r.r.:.* $ $ $ $ * F L * % $ . # L r.p p v.t.r.M % & $ X . + & o.r.r.r.r.r.r.a.:.> % % * $ + ",
"X # $ O . % :.a.r.r.r.r.r.r.r.a.a.:.F M F ) :.r.> $ & # . $ ..r.> * > F z.:.* $ & O . X $ = r.t.r.r.a.4.p * % % $ + X . ",
"$ & % . O * ) a.r.r.r.r.r.r.:.p F a.:.,.a.a.a.) * % & + . $ ..r.4.M $ > a.) * % & $ X . + % > ..:...k = % $ + X . . X # ",
"& & $ . + = :.a.r.r.r.r.r.a.p % * M % > 4.r.a.c $ % & o X % 4.r.a.L $ > a.L % % $ p % X . # % * * $ @ O X . . . O # % % ",
"% % + . @ > t.r.r.r.r.r.r.a.> % % & $ * ) a.r.> $ & $ . + % r.r.a.,.c :.a.O.* % * :.:.* X . X O . . . . . O # * M 4.* % ",
"% % O . $ M j.:.,.r.r.r.t.a.p % * > $ * :.a.:.* $ & + . $ > r.r.r.r.r.r.r.a.) p :.r.a.L % O . . X O # $ & & p 4.a.:.* % ",
"& % X X % ..,.= & p p k ,.r.:.p k * % p a.a.) * % & X X $ k r.r.r.r.r.r.r.r.r.a.,.> F r.* % + X & * :.r.> > r.t.a.4 % % ",
"& $   X % * % $ & % % $ * p p :.) % % > r.a.L % & $ . # % ..r.r.r.r.r.r.r.r.r.a.M % * r.* % O X * ) j.M $ $ L a.:.* % % ",
"% $ . X O . . O # $ % & % % % & > % $ = r.a.k $ * + . $ k a.a.r.r.r.r.r.r.r.r.a.) * p r.* % O O > a.r.p % % p a.L * % % ",
"% # . . . O + X   . + $ & & % % % * * M a.r.8 $ % X O * 4.) ) r.a.a.r.r.r.r.r.r.a.:.r.W & % X O > a.r.M $ $ M a.) % % % ",
"% # . X $ L ..= + X   X # $ & & % = :.t.j.:.* % $ . $ L r.> > a.4.O.t.r.r.r.r.r.r.r.a.= % $ . . * a.a.:.> p ,.a.4.5 % % ",
"% #   O M a.r.a.5 $ + X   X # % & & M ) ) 3 % * + X > a.a.....r.p * ) a.r.r.r.r.r.r.:.& % + . . O M 4.M F r.a.r.t.r.p % ",
"& $   O F a.r.a.) * & $ + X   O # $ % * * % $ + . + ..a.r.a.a.4.* % p j.r.r.a.r.r.a.p % % X O + . $ > % * ..a.r.r.r.r.* ",
"& % . O W r.:.r.4.> % % & $ + .   O + # @ + X .   + :.a.r.r.r.r.p * :.:.= M r.r.a.L & % $ . @ $ . O % % % W a.r.a.a.t.= ",
"% % O X M F * :.r.* $ M > % & $ + .   .   . O # X O W a.r.r.r.r.4...a.c $ * ) j...* % & O . % % + . $ * k 4.a.4.F ..a.= ",
"% % + X 8 p $ L j.M > r.4.p % & & $ $ + # $ $ * + . k a.r.r.r.r.t.a.a.M $ * :.) * % % + . + * * $ X O * :.a.t.p % * o.* ",
"% & @ X p ) p :.a.r.r.r.a.r.W * $ % % % % % $ % # . * r.a.r.r.r.r.r.a.4.M M p * % $ O . O p :...= O . * :.a.4.* $ $ k & ",
"% & @ X p a.r.r.r.r.t.r.r.r.t.,.L p p M W ) :.p % X X ) a.r.r.r.r.a.r.) 3 * & # O . . O * r.a.a.o.$ . # ) a.,.* % % = & ",
"% % @ X * ) 4.r.r.r.r.r.r.r.r.a.r.r.,.p M a.a.r.> + . $ :.a.a.a.:.3 * * $ + X . . X # * :.a.r.a.r.= X O p r.a.p $ * p & ",
"% % @ X $ & L a.r.r.r.r.r.r.r.r.r.a.) $ * O.r.a.c % X X % > > * & % # O X . . O * M :.r.a.r.r.r.a...+ . % :.a.4.) 4.p % ",
"% & @ X & * ) a.r.r.p p r.a.r.r.r.a.) $ * :.F ) L & + . . O + O X . . . X + > 4.a.a.t.a.r.r.r.r.r.a.* . + M a.r.r.a.M % ",
"% & + O ) F 4.r.r.4.* * 4.a.r.r.r.a.4.p M r.r.a.F & $ X . . . . X X X $ * L a.r.r.r.r.r.L F r.r.r.a.M . + * ) a.r.a.F % ",
"% % O # 4.r.r.a.r.t.p p r.t.r.r.r.r.r.a.a.r.r.a...* # . $ % & % % @ X $ p r.a.) * W a.L % % L a.r.a.:.# X $ > 4.a.r...& ",
"& $ . $ 4.r.r.4.r.r.a.a.r.r.r.r.r.r.r.r.r.r.r.t.:.= O . % ) a.L % @ X $ M a.a.> $ > r.> % % > a.r.r.i.*   # % p r.r.4.& ",
"& + . * a.r.) > ..a.r.r.r.r.r.r.r.r.r.r.r.r.r.a.) * X O p t.r.r.p # X $ L a.a.p $ > r.M $ $ k a.r.r.a.p X X $ & F t.a.* ",
"# X O > a.4.p @ F z.r.r.r.r.r.r.r.r.r.r.r.r.r.a.F @ . $ k r.r.a.:.$ X + L a.r.) > ) r.4.> > :.r.r.r.a.W @ . X # % k :.* ",
". . O * r.r.M * M ,.r.r.r.r.r.r.r.r.r.r.r.r.a.r.* . O % p a.a.a.r.> O X > r.a.a.j.a.r.r.a.a.t.a.a.r.a.) & # . . O + # + ",
"O + . $ ,.t.r.W * * :.a.r.r.r.r.r.a.t.r.r.a.,.= O . $ % L :.,.r.4.M @ . $ > ..a.r.r.r.r.r.r.r.:.,.a.a.) * % O . .     . ",
"$ % . O W r.a.) * $ ) t.r.a.r.t.r.p M a.r.F * + . @ & * 4.* k r.> * $ O X # p a.r.a.a.r.r.r.o.* p r.a.W % + . X + @ # # ",
"& & @   * a.r.:.* * :.4.r.:.r.a.,.$ * r.> & + . O % $ F a.> L ,.$ % * # . + > 4.4.M :.r.r.r.L $ * :.a.M @ .   + $ % * & ",
"% % $ X O M a.r.:.:.r.r.r.4.r.r.r.k = > $ + . O % $ p r.t.4.r.r.p p p $ + . $ 4.M % > r.a.a.o.$ > a.,.* X X > ..) M & % ",
"* M * #   $ r.r.a.a.r.r.r.a.r.a.r.p & # O . O % % p r.r.r.a.r.r.r.r.F % $ X O W > $ * r.L F t.o.,.a.p O . > j.a.a.a.M % ",
"3 t.,.> X X > a.r.r.r.r.r.r.a...* $ O . . @ % & $ W a.r.r.r.r.r.r.a.) % & @   > k $ > :.* & :.a.a...#   $ r.a.r.r.r.:.& ",
"L a.a.:.$ . + M r.r.r.r.a.r.p % + . . O $ % & & $ M r.r.r.r.r.4.r.r.a.) * $ X + o.:.,.o.% % ..a.4.* . O F a.r.r.r.r.r.& ",
"..:.r.a.F O . $ p 4.r.r.F * $ X . X $ % % p F * $ M r.r.r.r.> * :.r.W ) L % + . W j.r.r.> > a.r.* X X * ,.t.r.r.r.r.a.& ",
") % > j.,.* . O $ & * * % $ X . O % * > $ > r.p * :.a.r.r.r.= % W ,.& * ) > # . = a.r.r.r.a.r.p X . @ c a.r.r.t.a.r.r.& ",
"..) M a.a.F + . @ & % % # X . # * p 4.:.$ > r.a.a.r.r.r.r.r.k * r.4.* = :.p $ X + ) a.a.r.:.* X . + * :.a.r.a.r.4.r...& ",
"..a.a.,.r...% O X $ $ O . X $ k r.a.t.r.M L a.r.r.r.r.r.r.r.a.a.r.,.W ) r.> % O . $ p F p $ . . + % p a.r.r...> * k ..& ",
"..a.4.* p r.> # X . . . + > ,.a.a.r.r.a.a.a.r.r.r.r.r.r.r.r.r.r.4.* = z.r.p % + . . O O X   X @ % > r.r.a.F % % % % ) * ",
"..a.4.p F j.p $ + . + $ F a.r.:.,.t.r.:.:.r.r.r.r.r.r.r.r.r.r.a.4.= p a.a.M % @ . . . . X O $ * p 4.r.a.:.* % & & % ) * ",
") r.r.:.F r.M $ $ X $ > 4.r.r.* p a...* > :.a.r.r.r.r.r.r.r.r.r.r.:.:.r.a.) * + . X + $ p M M :.a.r.r.a.,.> $ $ $ * ) & ",
"M a.r.p $ F W $ & X @ p 4.r.r.* p r.p $ % M a.r.r.r.a.a.r.r.r.r.r.a.a.r.a.:.> + . + % L a.a.a.a.r.r.r.r.a...p > > ) M % ",
"M r.r.> $ k W $ & O O * r.a.r...:.r.p % % p j.r.r.a.:.:.r.r.r.r.r.r.r.r.r.4.5 + . $ % W r.r.r.r.r.a.j.r.r.a.a.r.r.a.> % ",
"k r.r.) > :.F $ $ O . O p ..r.a.a.t.L $ * ..a.r.r.r.> > r.a.a.a.r.r.r.r.r.4.> O . $ % p t.r.r.r.r.) M 4.r.r.r.r.r.r.F % ",
"> a.r.a.r.j.M $ # . X . X & :.r.r.t.r.W ) r.r.r.a.) & M r.r.F :.r.r.r.r.a.:.* X O % & & ) a.r.r.r.> % ..a.r.r.r.r.r.:.& ",
"> t.r.r.r.r.p # X O $ + . X > r.r.r.r.a.a.r.r.r.t.,...r.a.F % > a.r.r.r.a.M @ . # & % % * F t.a.r.W k r.r.r.r.r.r.r.o.& ",
"* a.r.r.a.o.% X . $ & % O . + F a.r.r.r.r.r.r.r.r.a.a.r.t.k $ & a.r.r.a...& O X $ & % % % & = ) a.r.r.t.r.r.r.r.r.t.W & ",
"& a.r.r.r.> X . @ & % & % X . $ F a.r.r.r.r.r.r.r.r.r.r.r.:.* p a.r.a.W * @ . @ & % % % % % $ = 4.a.a.a.a.r.r.r.r.a.k % ",
"& :.r.a.M X . + % % % % & $ . X & p 4.a.r.r.r.r.r.r.r.r.r.r.r.r.t...> % @ . O $ & % % % % % % % * * > k L ....4.r...* % ",
"& o.r.p X . + & % % % % % & O . # % * M :.a.r.r.r.r.r.r.r.4.W p * & $ O . X $ & % % % % % % % % % % % % & & & & & & % % "
};
